STARTFONT 2.3
FONT -FontForge-Syncopate-Book-R-Normal--18-180-72-72-P-135-ISO10646-1
SIZE 18 72 72  4
FONTBOUNDINGBOX 34 20 -4 -4
COMMENT "Generated by fontforge, http://fontforge.sourceforge.net"
COMMENT "Copyright (c) 2010 by Brian J. Bonislawsky DBA Astigmatic (AOETI). All rights reserved. Available under the Apache 2.0 licence.http://www.apache.org/licenses/LICENSE-2.0.html"
STARTPROPERTIES 40
FOUNDRY "FontForge"
FAMILY_NAME "Syncopate"
WEIGHT_NAME "Book"
SLANT "R"
SETWIDTH_NAME "Normal"
ADD_STYLE_NAME ""
PIXEL_SIZE 18
POINT_SIZE 180
RESOLUTION_X 72
RESOLUTION_Y 72
SPACING "P"
AVERAGE_WIDTH 135
CHARSET_REGISTRY "ISO10646"
CHARSET_ENCODING "1"
FONTNAME_REGISTRY ""
CHARSET_COLLECTIONS "ISO8859-2 ISO8859-9 ISO8859-4 ISO10646-1"
BITS_PER_PIXEL 4
FONT_NAME "Syncopate-Regular"
FACE_NAME "Syncopate Regular"
COPYRIGHT "Copyright (c) 2010 by Brian J. Bonislawsky DBA Astigmatic (AOETI). All rights reserved. Available under the Apache 2.0 licence.http://www.apache.org/licenses/LICENSE-2.0.html"
FONT_VERSION "001.001"
FONT_ASCENT 14
FONT_DESCENT 4
UNDERLINE_POSITION -2
UNDERLINE_THICKNESS 1
X_HEIGHT 11
CAP_HEIGHT 11
RAW_ASCENT 799
RAW_DESCENT 200
NORM_SPACE 7
RELATIVE_WEIGHT 40
RELATIVE_SETWIDTH 70
SUPERSCRIPT_X 0
SUPERSCRIPT_Y 5
SUPERSCRIPT_SIZE 3
SUBSCRIPT_X 0
SUBSCRIPT_Y 5
SUBSCRIPT_SIZE 3
AVG_LOWERCASE_WIDTH 154
AVG_UPPERCASE_WIDTH 149
ENDPROPERTIES
CHARS 370
STARTCHAR space
ENCODING 32
SWIDTH 375 0
DWIDTH 7 0
BBX 1 1 0 0
BITMAP
00
ENDCHAR
STARTCHAR exclam
ENCODING 33
SWIDTH 274 0
DWIDTH 5 0
BBX 3 12 1 0
BITMAP
3F20
3F20
2F20
2F10
1F00
0E00
0D00
0C00
0000
0000
3F20
3F20
ENDCHAR
STARTCHAR quotedbl
ENCODING 34
SWIDTH 290 0
DWIDTH 5 0
BBX 5 4 0 8
BITMAP
5D0A90
4C0980
4C0870
3B0870
ENDCHAR
STARTCHAR numbersign
ENCODING 35
SWIDTH 701 0
DWIDTH 13 0
BBX 12 12 0 0
BITMAP
00003A000A30
000076000D00
0000B3003B00
01FFFFFFFFFB
0001C0009400
00049000C200
00076000D000
000A3002B000
2FFFFFFFFFB0
001C00095000
0058000C1000
0094001C0000
ENDCHAR
STARTCHAR dollar
ENCODING 36
SWIDTH 767 0
DWIDTH 14 0
BBX 12 14 1 -1
BITMAP
000009400000
017CEFFD9500
2E9419525950
7A0009400000
7B0009400000
1BC519400000
005BEE930000
00000AACD700
000009402AC0
0000094000D4
0000094000D3
795219525CA0
16ADEFFDB500
000009400000
ENDCHAR
STARTCHAR percent
ENCODING 37
SWIDTH 992 0
DWIDTH 18 0
BBX 17 12 0 0
BITMAP
008DEC500000990000
09A214D40006B00000
1F10006A004D100000
1F10006A02D3000000
09A214D40C50000000
008DEC509800000000
00000007B04BED9100
0000004D13E5129B00
000002D30880000E20
00001C500880000E20
0000A80003E5129B00
0007B000003BED9100
ENDCHAR
STARTCHAR ampersand
ENCODING 38
SWIDTH 926 0
DWIDTH 17 0
BBX 15 12 1 0
BITMAP
0005BEFD81000000
006D5102AB000000
00B600005B000000
00890006C2000000
001D66C810000000
0019FC1000000000
03D72C8000005B00
2D2001AB20009700
88000006D501E100
7B0000002BAB6000
1DB5200137EE4000
016BDFFDB712BA10
ENDCHAR
STARTCHAR quotesingle
ENCODING 39
SWIDTH 140 0
DWIDTH 3 0
BBX 2 4 0 8
BITMAP
5D
4C
4C
3B
ENDCHAR
STARTCHAR parenleft
ENCODING 40
SWIDTH 420 0
DWIDTH 8 0
BBX 5 14 1 -1
BITMAP
000770
007C20
03E200
0B7000
2F1000
6B0000
8A0000
8A0000
6B0000
2F1000
0C7000
04E200
008C20
000870
ENDCHAR
STARTCHAR parenright
ENCODING 41
SWIDTH 420 0
DWIDTH 8 0
BBX 6 14 1 -1
BITMAP
1B2000
06E200
008C00
000D50
0007B0
0003F0
0001F2
0001F2
0003F0
0007B0
000D50
008C00
06E200
1B3000
ENDCHAR
STARTCHAR asterisk
ENCODING 42
SWIDTH 503 0
DWIDTH 9 0
BBX 7 7 1 5
BITMAP
000E0000
730D0370
4C8C8C50
00AFB000
4C8C8C50
730D0270
000E0000
ENDCHAR
STARTCHAR plus
ENCODING 43
SWIDTH 634 0
DWIDTH 11 0
BBX 9 9 1 2
BITMAP
0000C30000
0000C30000
0000C30000
0000C30000
7FFFFFFFE0
0000C30000
0000C30000
0000C30000
0000C30000
ENDCHAR
STARTCHAR comma
ENCODING 44
SWIDTH 185 0
DWIDTH 3 0
BBX 3 4 0 -2
BITMAP
0E70
2F30
4E00
7A00
ENDCHAR
STARTCHAR hyphen
ENCODING 45
SWIDTH 540 0
DWIDTH 10 0
BBX 8 1 1 6
BITMAP
8FFFFFF4
ENDCHAR
STARTCHAR period
ENCODING 46
SWIDTH 185 0
DWIDTH 3 0
BBX 3 2 0 0
BITMAP
2F60
2F60
ENDCHAR
STARTCHAR slash
ENCODING 47
SWIDTH 500 0
DWIDTH 9 0
BBX 7 13 1 0
BITMAP
000004C0
00000B50
00003D00
0000A600
0002D000
00097000
001E1000
00780000
00D20000
06A00000
0D300000
5B000000
C4000000
ENDCHAR
STARTCHAR zero
ENCODING 48
SWIDTH 833 0
DWIDTH 15 0
BBX 13 12 1 0
BITMAP
0005ADFDA50000
01BC52026CB100
0B90000000AB00
5D000000000D50
A60000000007A0
D40000000004C0
D40000000004C0
A60000000007A0
5D000000000D50
0B90000000AB00
01BC51015CB100
0005ADFDA50000
ENDCHAR
STARTCHAR one
ENCODING 49
SWIDTH 339 0
DWIDTH 6 0
BBX 4 12 0 0
BITMAP
38DF
C74F
002F
002F
002F
002F
002F
002F
002F
002F
002F
002F
ENDCHAR
STARTCHAR two
ENCODING 50
SWIDTH 728 0
DWIDTH 13 0
BBX 12 12 0 0
BITMAP
038CEFECA400
2B6310026CA0
0000000000C7
00000000006B
000000000089
0000000004E2
000000005D30
00000019C200
000006D70000
0004CA200000
03BC40000000
3FFFFFFFFFFF
ENDCHAR
STARTCHAR three
ENCODING 51
SWIDTH 726 0
DWIDTH 13 0
BBX 12 12 0 0
BITMAP
038CEFEDA500
1C6310125CB0
0000000000D4
0000000000D3
000000136B60
0000BFFFA300
000001236C91
000000000098
00000000005B
0000000000A8
4A5310126CC1
059DEFEDA500
ENDCHAR
STARTCHAR four
ENCODING 52
SWIDTH 769 0
DWIDTH 14 0
BBX 14 12 0 0
BITMAP
00000003EF3000
0000003E5D3000
000002D50D3000
00002D600D3000
0002D6000D3000
001D60000D3000
01C700000D3000
1C7000000D3000
7FFFFFFFFFFFF4
000000000D3000
000000000D3000
000000000D3000
ENDCHAR
STARTCHAR five
ENCODING 53
SWIDTH 738 0
DWIDTH 13 0
BBX 12 12 1 0
BITMAP
7FFFFFFFFF30
790000000000
790000000000
790000000000
7EDEFFEB7100
00000125AE30
0000000006D0
0000000000E2
0000000000E2
0000000007D0
B7310025AD30
38BEFFDB7100
ENDCHAR
STARTCHAR six
ENCODING 54
SWIDTH 772 0
DWIDTH 14 0
BBX 13 12 1 0
BITMAP
0004ADEEC83000
01BB620126B000
0B800000000000
4C000000000000
9705ADFEC81000
C9DB520149E300
CD400000006D00
B7000000000F20
7C000000000F20
1E600000007C00
03DA410149D200
0017CEFEC71000
ENDCHAR
STARTCHAR seven
ENCODING 55
SWIDTH 669 0
DWIDTH 12 0
BBX 12 12 0 0
BITMAP
FFFFFFFFFFF7
0000000005D1
000000001D50
000000009A00
00000003E200
0000000D6000
0000008C0000
000002E20000
00000C800000
00006D000000
0002E4000000
000A90000000
ENDCHAR
STARTCHAR eight
ENCODING 56
SWIDTH 793 0
DWIDTH 14 0
BBX 13 12 1 0
BITMAP
004ADEFEB71000
08D620014AC100
1F10000000C500
0E50000002D300
03DA52149D5000
0019FFFFC20000
06DA52148DA200
8C200000009D10
F3000000000D40
D6000000002E20
4EA4200138E700
027BDEFDC82000
ENDCHAR
STARTCHAR nine
ENCODING 57
SWIDTH 776 0
DWIDTH 14 0
BBX 13 12 0 0
BITMAP
0017CEFEB71000
02D941014AD300
0C600000007D10
2E000000000C60
2E0000000008A0
0D500000004EC0
04E931024AC8B0
0018CEFDB50890
00000000000D40
00000000008A00
02B520025BA100
0049DFEDA40000
ENDCHAR
STARTCHAR colon
ENCODING 58
SWIDTH 245 0
DWIDTH 4 0
BBX 2 8 1 0
BITMAP
8F
8F
00
00
00
00
8F
8F
ENDCHAR
STARTCHAR semicolon
ENCODING 59
SWIDTH 234 0
DWIDTH 4 0
BBX 3 10 0 -2
BITMAP
08F0
08F0
0000
0000
0000
0000
09C0
0B80
0E40
2E00
ENDCHAR
STARTCHAR less
ENCODING 60
SWIDTH 634 0
DWIDTH 11 0
BBX 9 9 1 2
BITMAP
00000005B0
000006DA30
0017DA3000
18E9200000
9E30000000
18E9200000
0017DA3000
000006DA30
00000005B0
ENDCHAR
STARTCHAR equal
ENCODING 61
SWIDTH 634 0
DWIDTH 11 0
BBX 9 4 1 4
BITMAP
7FFFFFFFE0
0000000000
0000000000
7FFFFFFFE0
ENDCHAR
STARTCHAR greater
ENCODING 62
SWIDTH 634 0
DWIDTH 11 0
BBX 10 9 1 2
BITMAP
7810000000
17D9200000
0017DA3000
000006DB40
0000000BF1
000006DB40
0017DA3000
17D9200000
7810000000
ENDCHAR
STARTCHAR question
ENCODING 63
SWIDTH 568 0
DWIDTH 10 0
BBX 8 12 1 0
BITMAP
3AEFDA50
A51026E7
0000004E
0000004E
000003D6
0037CC40
03E83000
03D00000
00000000
00000000
03F20000
03F20000
ENDCHAR
STARTCHAR at
ENCODING 64
SWIDTH 1016 0
DWIDTH 18 0
BBX 16 13 1 0
BITMAP
000016BDFEC94000
0007EA420136DA10
00AB2000000009C0
08C10000000000C6
1E20018DFDBA006B
7B000CA213C7004D
99006C0000B4005D
8900990000E100B8
6C005D3029F329D1
1E4007DFD77EEA10
05E4000000000000
005EA5201249A000
00016BDFEDB71000
ENDCHAR
STARTCHAR A
ENCODING 65
SWIDTH 812 0
DWIDTH 15 0
BBX 15 12 0 0
BITMAP
0000009F30000000
000002E9B0000000
00000991E4000000
00003E206C000000
0000A8000D500000
0003E10006D00000
000B800000D60000
004E1000006D0000
00CFFFFFFFFF7000
05D100000005E100
0D6000000000B800
6C00000000003E10
ENDCHAR
STARTCHAR B
ENCODING 66
SWIDTH 836 0
DWIDTH 15 0
BBX 12 12 2 0
BITMAP
FFFFFFFFD810
F20000013AB0
F200000000E1
F200000000F1
F20000013A90
FFFFFFFFF910
F200000027D4
F2000000006C
F2000000003E
F2000000005D
F200000015D6
FFFFFFFFEB50
ENDCHAR
STARTCHAR C
ENCODING 67
SWIDTH 869 0
DWIDTH 16 0
BBX 14 12 1 0
BITMAP
00027BDFEC8200
007E9421126C91
09C10000000055
3E100000000000
98000000000000
C6000000000000
C6000000000000
98000000000000
3E100000000000
09B10000000055
008E8410126B91
00027BDFEC8200
ENDCHAR
STARTCHAR D
ENCODING 68
SWIDTH 910 0
DWIDTH 16 0
BBX 14 12 2 0
BITMAP
FFFFFFFEC82000
F200000148E700
F2000000003E50
F20000000007C0
F20000000002F1
F20000000000F3
F20000000000E2
F20000000001F1
F20000000006C0
F2000000003E50
F200000248E600
FFFFFFFEC82000
ENDCHAR
STARTCHAR E
ENCODING 69
SWIDTH 754 0
DWIDTH 14 0
BBX 11 12 2 0
BITMAP
FFFFFFFFFF10
F30000000000
F30000000000
F30000000000
F30000000000
FFFFFFFFFA00
F30000000000
F30000000000
F30000000000
F30000000000
F30000000000
FFFFFFFFFF30
ENDCHAR
STARTCHAR F
ENCODING 70
SWIDTH 687 0
DWIDTH 12 0
BBX 10 12 2 0
BITMAP
FFFFFFFFF9
F200000000
F200000000
F200000000
F200000000
FFFFFFFFF2
F200000000
F200000000
F200000000
F200000000
F200000000
F200000000
ENDCHAR
STARTCHAR G
ENCODING 71
SWIDTH 910 0
DWIDTH 16 0
BBX 14 12 1 0
BITMAP
00017ADEFD9400
007E9521025BB2
08C20000000047
3E100000000000
99000000000000
C6000000000000
B6000002FFFFFE
9900000000003E
4E20000000003E
09D2000000003E
008EA52101248E
00027BDFFEDB73
ENDCHAR
STARTCHAR H
ENCODING 72
SWIDTH 949 0
DWIDTH 17 0
BBX 14 12 2 0
BITMAP
F20000000001F1
F20000000001F1
F20000000001F1
F20000000001F1
F20000000001F1
FFFFFFFFFFFFF1
F20000000001F1
F20000000001F1
F20000000001F1
F20000000001F1
F20000000001F1
F20000000001F1
ENDCHAR
STARTCHAR I
ENCODING 73
SWIDTH 287 0
DWIDTH 5 0
BBX 2 12 2 0
BITMAP
F2
F2
F2
F2
F2
F2
F2
F2
F2
F2
F2
F2
ENDCHAR
STARTCHAR J
ENCODING 74
SWIDTH 590 0
DWIDTH 11 0
BBX 9 12 0 0
BITMAP
00000007A0
00000007A0
00000007A0
00000007A0
00000007A0
00000007A0
00000007A0
00000007A0
0000000790
0000001C60
B62114BC00
39DFEC6000
ENDCHAR
STARTCHAR K
ENCODING 75
SWIDTH 806 0
DWIDTH 15 0
BBX 12 12 2 0
BITMAP
F200000019B2
F2000005D600
F20002BB2000
F2007D500000
F23CA1000000
FAF500000000
F4CC20000000
F207E7000000
F2002CC20000
F200007E7000
F2000002CC20
F200000007E7
ENDCHAR
STARTCHAR L
ENCODING 76
SWIDTH 701 0
DWIDTH 13 0
BBX 10 12 2 0
BITMAP
F200000000
F200000000
F200000000
F200000000
F200000000
F200000000
F200000000
F200000000
F200000000
F200000000
F200000000
FFFFFFFFFE
ENDCHAR
STARTCHAR M
ENCODING 77
SWIDTH 1139 0
DWIDTH 21 0
BBX 17 12 2 0
BITMAP
F80000000000001E70
FE300000000000AE70
F6C00000000005C970
F297000000001D3970
F21D20000000980970
F205C0000004D00970
F200B700001D400970
F2002E200089000970
F20007B003D1000970
F20000C60C50000970
F200003E9B00000970
F2000008E200000970
ENDCHAR
STARTCHAR N
ENCODING 78
SWIDTH 936 0
DWIDTH 17 0
BBX 13 12 2 0
BITMAP
FB0000000004C0
FDB000000004C0
F3CA00000004C0
F21CA0000004C0
F201CA000004C0
F2001CA00004C0
F20001CA0004C0
F200001CA004C0
F2000001CA04C0
F20000001CA4C0
F200000001CCC0
F2000000001CC0
ENDCHAR
STARTCHAR O
ENCODING 79
SWIDTH 983 0
DWIDTH 18 0
BBX 16 12 1 0
BITMAP
00027BDFEDB71000
008E84101249E600
09B1000000003D60
3E100000000004E1
98000000000000C5
C6000000000000A7
B6000000000000A7
98000000000000C5
4E100000000004E1
0AB1000000003D60
009E84100249E600
00038CEFFDB71000
ENDCHAR
STARTCHAR P
ENCODING 80
SWIDTH 818 0
DWIDTH 15 0
BBX 12 12 2 0
BITMAP
FFFFFFFED920
F200000137E3
F2000000008A
F2000000006C
F2000000009A
F200000027E3
FFFFFFFED920
F20000000000
F20000000000
F20000000000
F20000000000
F20000000000
ENDCHAR
STARTCHAR Q
ENCODING 81
SWIDTH 983 0
DWIDTH 18 0
BBX 17 12 1 0
BITMAP
00027BDFEDB7100000
008E84101249E60000
09B1000000003D6000
3E100000000004E100
98000000000000C500
C6000000000000A700
B6000000000000A700
98000000000000D500
4E100000000004E100
0AB100000C953D6000
009E841014AFFD6300
00038CEFEDB6159D60
ENDCHAR
STARTCHAR R
ENCODING 82
SWIDTH 833 0
DWIDTH 15 0
BBX 13 12 2 0
BITMAP
FFFFFFFEB60000
F20000125C9000
F200000002F100
F200000000E300
F200000001F100
F20000125C9000
FFFFFFFFC60000
F2000008B00000
F2000000B80000
F20000001D5000
F200000003E300
F2000000006D10
ENDCHAR
STARTCHAR S
ENCODING 83
SWIDTH 787 0
DWIDTH 14 0
BBX 12 12 1 0
BITMAP
017BEFEDA610
1DA4210148A0
7B0000000000
7C0000000000
1BC610000000
004AEC841000
0000037AEA20
0000000016E4
00000000007B
00000000008A
6953101149E2
049CEFFEB710
ENDCHAR
STARTCHAR T
ENCODING 84
SWIDTH 708 0
DWIDTH 13 0
BBX 13 12 0 0
BITMAP
AFFFFFFFFFFF60
000002E0000000
000002E0000000
000002E0000000
000002E0000000
000002E0000000
000002E0000000
000002E0000000
000002E0000000
000002E0000000
000002E0000000
000002E0000000
ENDCHAR
STARTCHAR U
ENCODING 85
SWIDTH 891 0
DWIDTH 16 0
BBX 14 12 1 0
BITMAP
1F0000000000F2
1F0000000000F2
1F0000000000F2
1F0000000000F2
1F0000000000F2
1F0000000000F2
1F0000000000F2
1F0000000000F2
0F1000000001F1
0B9000000008C0
02DB520025BD20
0016BEFFEB7100
ENDCHAR
STARTCHAR V
ENCODING 86
SWIDTH 817 0
DWIDTH 15 0
BBX 15 12 0 0
BITMAP
4E10000000004E10
0B7000000000B700
04E100000004E100
00B70000000B7000
004E1000004E1000
000B700000B70000
0004E10004E10000
0000B7000B700000
00004E104D000000
00000B70B6000000
000004E5D0000000
000000BF60000000
ENDCHAR
STARTCHAR W
ENCODING 87
SWIDTH 1266 0
DWIDTH 23 0
BBX 22 12 0 0
BITMAP
2F200000008F500000004E
0B70000000EBB0000000A8
05D0000005D2F2000002F2
00D400000A70B7000008B0
008A00001F205D00000D50
002F20007A000E40005D00
000A7000D50008A000B700
0004D004E00002E102F200
0000D509800000B608A000
00007B1E2000005C0D4000
00001F8B0000000E8D0000
00000AF500000009F70000
ENDCHAR
STARTCHAR X
ENCODING 88
SWIDTH 821 0
DWIDTH 15 0
BBX 13 12 1 0
BITMAP
6D200000003E40
07D1000003E400
008C10002E5000
0008C102D50000
00009B2D600000
000009F7000000
00001C9B000000
0001C508A00000
001C60009A0000
01B700000A9000
0B90000000B800
AA000000001C80
ENDCHAR
STARTCHAR Y
ENCODING 89
SWIDTH 763 0
DWIDTH 14 0
BBX 13 12 0 0
BITMAP
1D500000000AA0
03E30000007C10
005D200004E200
0007C0002E4000
0000AA01D60000
00001C7B900000
000002EB000000
000000A6000000
000000A6000000
000000A6000000
000000A6000000
000000A6000000
ENDCHAR
STARTCHAR Z
ENCODING 90
SWIDTH 728 0
DWIDTH 13 0
BBX 11 12 1 0
BITMAP
7FFFFFFFFFA0
000000006D10
00000004E200
0000003E4000
000001D50000
00001C700000
0000A9000000
0009B0000000
007D10000000
05D200000000
3E3000000000
AFFFFFFFFFE0
ENDCHAR
STARTCHAR bracketleft
ENCODING 91
SWIDTH 409 0
DWIDTH 7 0
BBX 5 14 2 -1
BITMAP
BFFF70
B50000
B50000
B50000
B50000
B50000
B50000
B50000
B50000
B50000
B50000
B50000
B50000
BFFF70
ENDCHAR
STARTCHAR backslash
ENCODING 92
SWIDTH 500 0
DWIDTH 9 0
BBX 7 13 1 0
BITMAP
C4000000
5B000000
0D300000
06A00000
00D20000
00780000
001E1000
00097000
0002D000
0000A600
00003D00
00000B50
000004C0
ENDCHAR
STARTCHAR bracketright
ENCODING 93
SWIDTH 409 0
DWIDTH 7 0
BBX 6 14 0 -1
BITMAP
2FFFF1
0000F1
0000F1
0000F1
0000F1
0000F1
0000F1
0000F1
0000F1
0000F1
0000F1
0000F1
0000F1
2FFFF1
ENDCHAR
STARTCHAR asciicircum
ENCODING 94
SWIDTH 459 0
DWIDTH 8 0
BBX 8 5 0 7
BITMAP
000BE100
005B7A00
01D30D40
099005C0
3E1000B7
ENDCHAR
STARTCHAR underscore
ENCODING 95
SWIDTH 500 0
DWIDTH 9 0
BBX 9 1 0 -2
BITMAP
FFFFFFFFF0
ENDCHAR
STARTCHAR grave
ENCODING 96
SWIDTH 527 0
DWIDTH 10 0
BBX 5 3 1 10
BITMAP
2B3000
18E910
001790
ENDCHAR
STARTCHAR a
ENCODING 97
SWIDTH 888 0
DWIDTH 16 0
BBX 14 12 1 0
BITMAP
0159CEFEDB6000
0A95210126CD20
000000000009B0
000000000002F0
000000000000F1
0000268ABCEFF1
029EC9754211F1
4E7100000000F1
C60000000000F1
D60000000003F1
6F83101258CCF1
04ADEFECA620F1
ENDCHAR
STARTCHAR b
ENCODING 98
SWIDTH 836 0
DWIDTH 15 0
BBX 12 12 2 0
BITMAP
FFFFFFFFD810
F20000013AB0
F200000000E1
F200000000F1
F20000013A90
FFFFFFFFF910
F200000027D4
F2000000006C
F2000000003E
F2000000005D
F200000015D6
FFFFFFFFEB50
ENDCHAR
STARTCHAR c
ENCODING 99
SWIDTH 869 0
DWIDTH 16 0
BBX 14 12 1 0
BITMAP
00027BDFEC8200
007E9421126C91
09C10000000055
3E100000000000
98000000000000
C6000000000000
C6000000000000
98000000000000
3E100000000000
09B10000000055
008E8410126B91
00027BDFEC8200
ENDCHAR
STARTCHAR d
ENCODING 100
SWIDTH 910 0
DWIDTH 16 0
BBX 14 12 2 0
BITMAP
FFFFFFFEC82000
F200000148E700
F2000000003E50
F20000000007C0
F20000000002F1
F20000000000F3
F20000000000E2
F20000000001F1
F20000000006C0
F2000000003E50
F200000248E600
FFFFFFFEC82000
ENDCHAR
STARTCHAR e
ENCODING 101
SWIDTH 910 0
DWIDTH 16 0
BBX 15 12 1 0
BITMAP
00028CEFEB710000
008D7310149E5000
09A100000003D400
3D00000000005B00
9700000000000E10
BFFFFFFFFFFFFF30
B600000000000000
9A00000000000000
4F30000000000000
09D3000000000000
008EA5210136B300
00028BEFFEC84000
ENDCHAR
STARTCHAR f
ENCODING 102
SWIDTH 817 0
DWIDTH 15 0
BBX 12 12 2 0
BITMAP
017CEFFFFFF9
2E9420000000
B70000000000
E20000000000
F20000000000
FFFFFFFFFFF7
F20000000000
F20000000000
F20000000000
F20000000000
F20000000000
F20000000000
ENDCHAR
STARTCHAR g
ENCODING 103
SWIDTH 910 0
DWIDTH 16 0
BBX 14 12 1 0
BITMAP
00017ADEFD9400
007E9521025BB2
08C20000000047
3E100000000000
99000000000000
C6000000000000
B6000002FFFFFE
9900000000003E
4E20000000003E
09D2000000003E
008EA52101248E
00027BDFFEDB73
ENDCHAR
STARTCHAR h
ENCODING 104
SWIDTH 949 0
DWIDTH 17 0
BBX 14 12 2 0
BITMAP
F20000000001F1
F20000000001F1
F20000000001F1
F20000000001F1
F20000000001F1
FFFFFFFFFFFFF1
F20000000001F1
F20000000001F1
F20000000001F1
F20000000001F1
F20000000001F1
F20000000001F1
ENDCHAR
STARTCHAR i
ENCODING 105
SWIDTH 287 0
DWIDTH 5 0
BBX 2 12 2 0
BITMAP
F2
F2
F2
F2
F2
F2
F2
F2
F2
F2
F2
F2
ENDCHAR
STARTCHAR j
ENCODING 106
SWIDTH 590 0
DWIDTH 11 0
BBX 9 12 0 0
BITMAP
00000007A0
00000007A0
00000007A0
00000007A0
00000007A0
00000007A0
00000007A0
00000007A0
0000000790
0000001C60
B62114BC00
39DFEC6000
ENDCHAR
STARTCHAR k
ENCODING 107
SWIDTH 867 0
DWIDTH 16 0
BBX 13 12 2 0
BITMAP
F2000000008900
F200000001D400
F20000000AA000
F2000002BB1000
F20126AC500000
FFFFFFA2000000
F201258EB20000
F20000017E5000
F200000004E300
F2000000008C00
F2000000000E30
F2000000000B60
ENDCHAR
STARTCHAR l
ENCODING 108
SWIDTH 709 0
DWIDTH 13 0
BBX 11 12 2 0
BITMAP
F20000000000
F20000000000
F20000000000
F20000000000
F20000000000
F20000000000
F20000000000
F20000000000
E30000000000
C50000000000
6E5200000000
05BEFFFFFF90
ENDCHAR
STARTCHAR m
ENCODING 109
SWIDTH 1246 0
DWIDTH 22 0
BBX 19 12 2 0
BITMAP
F217CEE91004ADFD7000
F5D83129D2AC5213C900
FD300000BE7000001E30
F30000006B0000000B60
F20000005B0000000A70
F20000005B0000000A70
F20000005B0000000A70
F20000005B0000000A70
F20000005B0000000A70
F20000005B0000000A70
F20000005B0000000A70
F20000005B0000000A70
ENDCHAR
STARTCHAR n
ENCODING 110
SWIDTH 933 0
DWIDTH 17 0
BBX 13 12 2 0
BITMAP
F2005ADEED8100
F27DA631139D10
FDA20000000A80
F50000000005B0
F20000000004C0
F20000000004C0
F20000000004C0
F20000000004C0
F20000000004C0
F20000000004C0
F20000000004C0
F20000000004C0
ENDCHAR
STARTCHAR o
ENCODING 111
SWIDTH 983 0
DWIDTH 18 0
BBX 16 12 1 0
BITMAP
00027BDFEDB71000
008E84101249E600
09B1000000003D60
3E100000000004E1
98000000000000C5
C6000000000000A7
B6000000000000A7
98000000000000C5
4E100000000004E1
0AB1000000003D60
009E84100249E600
00038CEFFDB71000
ENDCHAR
STARTCHAR p
ENCODING 112
SWIDTH 818 0
DWIDTH 15 0
BBX 12 12 2 0
BITMAP
FFFFFFFED920
F200000137E3
F2000000008A
F2000000006C
F2000000009A
F200000027E3
FFFFFFFED920
F20000000000
F20000000000
F20000000000
F20000000000
F20000000000
ENDCHAR
STARTCHAR q
ENCODING 113
SWIDTH 983 0
DWIDTH 18 0
BBX 17 12 1 0
BITMAP
00027BDFEDB7100000
008E84101249E60000
09B1000000003D6000
3E100000000004E100
98000000000000C500
C6000000000000A700
B6000000000000A700
98000000000000C500
4E100000000004E100
0AB1000000003D6000
009E84100249FD5300
00038CEFEDB647AD50
ENDCHAR
STARTCHAR r
ENCODING 114
SWIDTH 609 0
DWIDTH 11 0
BBX 9 12 2 0
BITMAP
F2017CEFD0
F26D831020
FBA1000000
F800000000
F200000000
F200000000
F200000000
F200000000
F200000000
F200000000
F200000000
F200000000
ENDCHAR
STARTCHAR s
ENCODING 115
SWIDTH 787 0
DWIDTH 14 0
BBX 12 12 1 0
BITMAP
017BEFEDA610
1DA4210148A0
7B0000000000
7C0000000000
1BC610000000
004AEC841000
0000037AEA20
0000000016E4
00000000007B
00000000008A
6953101149E2
049CEFFEB710
ENDCHAR
STARTCHAR t
ENCODING 116
SWIDTH 708 0
DWIDTH 13 0
BBX 13 12 0 0
BITMAP
AFFFFFFFFFFF60
000002E0000000
000002E0000000
000002E0000000
000002E0000000
000002E0000000
000002E0000000
000002E0000000
000002E0000000
000002E0000000
000002E0000000
000002E0000000
ENDCHAR
STARTCHAR u
ENCODING 117
SWIDTH 931 0
DWIDTH 17 0
BBX 13 12 2 0
BITMAP
F10000000006B0
F10000000006B0
F10000000006B0
F10000000006B0
F10000000006B0
F10000000006B0
F10000000006B0
F10000000006B0
F20000000009B0
B700000003BEB0
3E721136CC56B0
029DFEC94006B0
ENDCHAR
STARTCHAR v
ENCODING 118
SWIDTH 817 0
DWIDTH 15 0
BBX 15 12 0 0
BITMAP
4E10000000004E10
0B7000000000B700
04E100000004E100
00B70000000B7000
004E1000004E1000
000B700000B70000
0004E10004E10000
0000B7000B700000
00004E104D000000
00000B70B6000000
000004E5D0000000
000000BF60000000
ENDCHAR
STARTCHAR w
ENCODING 119
SWIDTH 1266 0
DWIDTH 23 0
BBX 22 12 0 0
BITMAP
2F200000008F500000004E
0B70000000EBB0000000A8
05D0000005D2F2000002F2
00D400000A70B7000008B0
008A00001F205D00000D50
002F20007A000E40005D00
000A7000D50008A000B700
0004D004E00002E102F200
0000D509800000B608A000
00007B1E2000005C0D4000
00001F8B0000000E8D0000
00000AF500000009F70000
ENDCHAR
STARTCHAR x
ENCODING 120
SWIDTH 821 0
DWIDTH 15 0
BBX 13 12 1 0
BITMAP
6D200000003E40
07D1000003E400
008C10002E5000
0008C102D50000
00009B2D600000
000009F7000000
00001C9B000000
0001C508A00000
001C60009A0000
01B700000A9000
0B90000000B800
AA000000001C80
ENDCHAR
STARTCHAR y
ENCODING 121
SWIDTH 911 0
DWIDTH 16 0
BBX 14 12 1 0
BITMAP
6B0000000000B5
6B0000000000B5
6B0000000000B5
5D0000000000C5
2F1000000006F5
0C800000007DD5
02DA41015CB2B5
0017CEFDA400C5
000000000001E3
00000000001BB0
5A63100248EB10
059CEFFEC94000
ENDCHAR
STARTCHAR z
ENCODING 122
SWIDTH 728 0
DWIDTH 13 0
BBX 11 12 1 0
BITMAP
7FFFFFFFFFA0
000000006D10
00000004E200
0000003E4000
000001D50000
00001C700000
0000A9000000
0009B0000000
007D10000000
05D200000000
3E3000000000
AFFFFFFFFFE0
ENDCHAR
STARTCHAR braceleft
ENCODING 123
SWIDTH 386 0
DWIDTH 7 0
BBX 7 14 0 -1
BITMAP
0007DF10
003E2000
006A0000
007A0000
007A0000
00880000
02D30000
7F800000
02C50000
00790000
007A0000
006A0000
004D1000
0008EF10
ENDCHAR
STARTCHAR bar
ENCODING 124
SWIDTH 259 0
DWIDTH 5 0
BBX 2 18 1 -4
BITMAP
3D
3D
3D
3D
3D
3D
3D
3D
3D
3D
3D
3D
3D
3D
3D
3D
3D
3D
ENDCHAR
STARTCHAR braceright
ENCODING 125
SWIDTH 386 0
DWIDTH 7 0
BBX 7 14 0 -1
BITMAP
2FD60000
002E2000
000B5000
000B6000
000A6000
00097000
0004C200
00009F60
0005B100
000A6000
000B6000
000B5000
002E3000
2FE80000
ENDCHAR
STARTCHAR asciitilde
ENCODING 126
SWIDTH 634 0
DWIDTH 11 0
BBX 10 2 1 5
BITMAP
3BED941181
73137BEE70
ENDCHAR
STARTCHAR nonbreakingspace
ENCODING 160
SWIDTH 375 0
DWIDTH 7 0
BBX 1 1 0 0
BITMAP
00
ENDCHAR
STARTCHAR exclamdown
ENCODING 161
SWIDTH 274 0
DWIDTH 5 0
BBX 3 12 1 0
BITMAP
3F20
3F20
0000
0000
0C00
0D00
0E00
1F00
2F10
2F20
3F20
3F20
ENDCHAR
STARTCHAR cent
ENCODING 162
SWIDTH 736 0
DWIDTH 13 0
BBX 13 14 0 -1
BITMAP
0000003B000000
00017CEFEC9500
005E944B125A50
03E3003B000000
0B70003B000000
0F30003B000000
1F10003B000000
0F30003B000000
0B70003B000000
04E3003B000000
005E944B125A50
00018CEFEDA500
0000003B000000
0000003B000000
ENDCHAR
STARTCHAR sterling
ENCODING 163
SWIDTH 792 0
DWIDTH 14 0
BBX 13 12 1 0
BITMAP
00003ADFEB6100
0004E620138600
000D5000000000
003E0000000000
005C0000000000
005C0000000000
EFFFFFFFF80000
005C0000000000
005B0000000000
00860000000000
17FFEC84103830
C720248CEFC600
ENDCHAR
STARTCHAR currency
ENCODING 164
SWIDTH 560 0
DWIDTH 10 0
BBX 8 8 1 2
BITMAP
72000017
5D9EEAD6
0B9218D0
2D0000B3
2C0000B3
0B8117C0
5D9EE9C6
62000017
ENDCHAR
STARTCHAR yen
ENCODING 165
SWIDTH 811 0
DWIDTH 15 0
BBX 13 12 1 0
BITMAP
8C000000003E20
0A90000002D400
00C600000C6000
001D4000A90000
0003D207B00000
6FFFFC5FFFFF00
00000AF3000000
000004D0000000
6FFFFFFFFFFF00
000004D0000000
000004D0000000
000004D0000000
ENDCHAR
STARTCHAR brokenbar
ENCODING 166
SWIDTH 259 0
DWIDTH 5 0
BBX 2 16 1 -3
BITMAP
3D
3D
3D
3D
3D
3D
3D
00
00
3D
3D
3D
3D
3D
3D
3D
ENDCHAR
STARTCHAR section
ENCODING 167
SWIDTH 500 0
DWIDTH 9 0
BBX 7 12 1 0
BITMAP
07DFD500
4D202910
3E200000
0AF92000
7B49E910
D3001BA0
AB1003D0
19E83B70
0029FA00
00002E30
57203D40
18EFD700
ENDCHAR
STARTCHAR dieresis
ENCODING 168
SWIDTH 527 0
DWIDTH 10 0
BBX 6 1 2 10
BITMAP
AA02F2
ENDCHAR
STARTCHAR copyright
ENCODING 169
SWIDTH 770 0
DWIDTH 14 0
BBX 13 12 0 0
BITMAP
00017CEEB60000
002C93114AB100
01C40000006B00
08702AEE910860
0D11D7116702B0
1C0790000000C0
1C0960000000C0
0D1790000001B0
0871D711660860
01D42AEE916B00
002D93114AC100
00017CEEC60000
ENDCHAR
STARTCHAR ordfeminine
ENCODING 170
SWIDTH 497 0
DWIDTH 9 0
BBX 8 8 0 4
BITMAP
0CFFFEA2
0000016C
027ACEFE
3D74210E
6B10138E
19EFFD8E
00000000
3FFFFFFE
ENDCHAR
STARTCHAR guillemotleft
ENCODING 171
SWIDTH 440 0
DWIDTH 8 0
BBX 8 7 0 3
BITMAP
003A01B1
01D50B90
0C808B00
4E00F300
0C808B00
01D50B90
003A01B1
ENDCHAR
STARTCHAR logicalnot
ENCODING 172
SWIDTH 634 0
DWIDTH 11 0
BBX 9 4 1 4
BITMAP
7FFFFFFFE0
00000000E0
00000000E0
00000000E0
ENDCHAR
STARTCHAR uni00AD
ENCODING 173
SWIDTH 540 0
DWIDTH 10 0
BBX 8 1 1 6
BITMAP
8FFFFFF4
ENDCHAR
STARTCHAR registered
ENCODING 174
SWIDTH 600 0
DWIDTH 11 0
BBX 9 9 1 3
BITMAP
018DFC6000
1C8203AA00
865FFC1950
B0570A51A0
A05FFC10B0
B0571B01A0
8657067950
1C8203AA00
008DFD6000
ENDCHAR
STARTCHAR macron
ENCODING 175
SWIDTH 527 0
DWIDTH 10 0
BBX 6 1 2 10
BITMAP
AFFFF2
ENDCHAR
STARTCHAR degree
ENCODING 176
SWIDTH 373 0
DWIDTH 7 0
BBX 5 4 1 8
BITMAP
2CEA00
B51960
B51960
2CEA00
ENDCHAR
STARTCHAR plusminus
ENCODING 177
SWIDTH 634 0
DWIDTH 11 0
BBX 9 9 1 1
BITMAP
0000C30000
0000C30000
0000C30000
7FFFFFFFE0
0000C30000
0000C30000
0000C30000
0000000000
7FFFFFFFE0
ENDCHAR
STARTCHAR twosuperior
ENCODING 178
SWIDTH 511 0
DWIDTH 9 0
BBX 9 8 0 4
BITMAP
06BEEC8100
4A3113AB00
0000000F10
0000005B00
000007B100
0005C60000
04B8100000
5FFFFFFF30
ENDCHAR
STARTCHAR threesuperior
ENCODING 179
SWIDTH 512 0
DWIDTH 9 0
BBX 8 8 0 4
BITMAP
06CFED91
383112AA
000014A7
000FFE60
000013A9
0000001F
583113AB
17CFED81
ENDCHAR
STARTCHAR acute
ENCODING 180
SWIDTH 527 0
DWIDTH 10 0
BBX 5 3 3 10
BITMAP
000780
04DB40
3B4000
ENDCHAR
STARTCHAR micro
ENCODING 181
SWIDTH 705 0
DWIDTH 13 0
BBX 11 12 0 -4
BITMAP
003E000003E0
006A000006B0
008700000980
00B400000C50
00E100001F20
02F20000BE00
05DB214B7E00
0876EEB30E20
0B5000000000
0E2000000000
2E0000000000
5C0000000000
ENDCHAR
STARTCHAR paragraph
ENCODING 182
SWIDTH 585 0
DWIDTH 11 0
BBX 8 12 1 0
BITMAP
04BEFFF6
4FFFE066
CFFFE066
EFFFE066
CFFFE066
4FFFE066
04BEE066
0000C066
0000C066
0000C066
0000C066
0000C066
ENDCHAR
STARTCHAR periodcentered
ENCODING 183
SWIDTH 185 0
DWIDTH 3 0
BBX 3 2 0 5
BITMAP
2F60
2F60
ENDCHAR
STARTCHAR cedilla
ENCODING 184
SWIDTH 527 0
DWIDTH 10 0
BBX 5 4 2 -4
BITMAP
009200
00EE60
0006B0
4FFD40
ENDCHAR
STARTCHAR onesuperior
ENCODING 185
SWIDTH 261 0
DWIDTH 5 0
BBX 4 8 0 4
BITMAP
CFF1
00E1
00E1
00E1
00E1
00E1
00E1
00E1
ENDCHAR
STARTCHAR ordmasculine
ENCODING 186
SWIDTH 520 0
DWIDTH 9 0
BBX 9 8 0 4
BITMAP
018DEDA300
1D82015D40
6A000004B0
6A000004B0
1D82015D40
019DFEB400
0000000000
0FFFFFFF60
ENDCHAR
STARTCHAR guillemotright
ENCODING 187
SWIDTH 440 0
DWIDTH 8 0
BBX 8 7 0 3
BITMAP
1B10A300
0AA06D10
00C709B0
003F01E3
00C709B0
09A06D10
1B10A300
ENDCHAR
STARTCHAR onequarter
ENCODING 188
SWIDTH 857 0
DWIDTH 15 0
BBX 15 12 0 0
BITMAP
AFF30000005C1000
00B3000003D20000
00B300001D400000
00B30000B7000000
00B30008A0000000
00B3005C10000000
000003D2002DC000
00001D4002C5C000
0000B6003C32C000
00089004C202C000
005C000BFFFFFF80
03D200000002C000
ENDCHAR
STARTCHAR onehalf
ENCODING 189
SWIDTH 937 0
DWIDTH 17 0
BBX 16 12 0 0
BITMAP
AFF30000005C1000
00B3000003D20000
00B300001D400000
00B30000B7000000
00B30008A0000000
00B3005C129EEC50
000003D2086104E3
00001D40000000B4
0000B600000005C0
0008900000019910
005C0000017B4000
03D200000BFFFFF6
ENDCHAR
STARTCHAR threequarters
ENCODING 190
SWIDTH 978 0
DWIDTH 18 0
BBX 17 12 0 0
BITMAP
0EFFEA2000003D1000
000018A00001D30000
00002980000B600000
002FFA000099000000
000127C006C0000000
000016D03D10000000
2FFFEB31D3001BF000
0000000B6001C5F000
00000099002C40F000
000006C002C300F000
00003D1009FFFFFFB0
0001D300000000F000
ENDCHAR
STARTCHAR questiondown
ENCODING 191
SWIDTH 568 0
DWIDTH 10 0
BBX 9 12 1 0
BITMAP
00000E7000
00000E7000
0000000000
0000000000
00000A7000
00027D7000
02BD841000
3E60000000
A800000000
A800000000
4E82014A20
039DFEB500
ENDCHAR
STARTCHAR Agrave
ENCODING 192
SWIDTH 812 0
DWIDTH 15 0
BBX 15 16 0 0
BITMAP
0000881000000000
00003BD500000000
0000003B40000000
0000000000000000
0000009F30000000
000002E9B0000000
00000991E4000000
00003E206C000000
0000A8000D500000
0003E10006D00000
000B800000D60000
004E1000006D0000
00CFFFFFFFFF7000
05D100000005E100
0D6000000000B800
6C00000000003E10
ENDCHAR
STARTCHAR Aacute
ENCODING 193
SWIDTH 812 0
DWIDTH 15 0
BBX 15 16 0 0
BITMAP
000000002B300000
00000018E8100000
0000008810000000
0000000000000000
0000009F30000000
000002E9B0000000
00000991E4000000
00003E206C000000
0000A8000D500000
0003E10006D00000
000B800000D60000
004E1000006D0000
00CFFFFFFFFF7000
05D100000005E100
0D6000000000B800
6C00000000003E10
ENDCHAR
STARTCHAR Acircumflex
ENCODING 194
SWIDTH 812 0
DWIDTH 15 0
BBX 15 16 0 0
BITMAP
0000006C30000000
00001BA5C7000000
0000A40007700000
0000000000000000
0000009F30000000
000002E9B0000000
00000991E4000000
00003E206C000000
0000A8000D500000
0003E10006D00000
000B800000D60000
004E1000006D0000
00CFFFFFFFFF7000
05D100000005E100
0D6000000000B800
6C00000000003E10
ENDCHAR
STARTCHAR Atilde
ENCODING 195
SWIDTH 812 0
DWIDTH 15 0
BBX 15 15 0 0
BITMAP
00003DD718500000
0000A43AEB100000
0000000000000000
0000009F30000000
000002E9B0000000
00000991E4000000
00003E206C000000
0000A8000D500000
0003E10006D00000
000B800000D60000
004E1000006D0000
00CFFFFFFFFF7000
05D100000005E100
0D6000000000B800
6C00000000003E10
ENDCHAR
STARTCHAR Adieresis
ENCODING 196
SWIDTH 812 0
DWIDTH 15 0
BBX 15 14 0 0
BITMAP
00001F308B000000
0000000000000000
0000009F30000000
000002E9B0000000
00000991E4000000
00003E206C000000
0000A8000D500000
0003E10006D00000
000B800000D60000
004E1000006D0000
00CFFFFFFFFF7000
05D100000005E100
0D6000000000B800
6C00000000003E10
ENDCHAR
STARTCHAR Aring
ENCODING 197
SWIDTH 812 0
DWIDTH 15 0
BBX 15 16 0 0
BITMAP
000006DFC3000000
00000D3089000000
000006DFC3000000
0000000000000000
0000009F30000000
000002E9B0000000
00000991E4000000
00003E206C000000
0000A8000D500000
0003E10006D00000
000B800000D60000
004E1000006D0000
00CFFFFFFFFF7000
05D100000005E100
0D6000000000B800
6C00000000003E10
ENDCHAR
STARTCHAR AE
ENCODING 198
SWIDTH 1172 0
DWIDTH 21 0
BBX 20 12 0 0
BITMAP
00000003FFFFFFFFFFF9
0000000C67B000000000
0000008B07B000000000
000003E207B000000000
00001D7007B000000000
00009C0007FFFFFFFFF3
0004F30007B000000000
001D800007B000000000
009FFFFFFFB000000000
04F3000007B000000000
1E70000007B000000000
AC00000007FFFFFFFFFB
ENDCHAR
STARTCHAR Ccedilla
ENCODING 199
SWIDTH 869 0
DWIDTH 16 0
BBX 14 16 1 -4
BITMAP
00027BDFEC8200
007E9421126C91
09C10000000055
3E100000000000
98000000000000
C6000000000000
C6000000000000
98000000000000
3E100000000000
09B10000000055
008E8410126B91
00027BEFEC8200
0000002A000000
0000006FC10000
00000001B50000
00000AFFB10000
ENDCHAR
STARTCHAR Egrave
ENCODING 200
SWIDTH 754 0
DWIDTH 14 0
BBX 11 16 2 0
BITMAP
00B500000000
006DB2000000
00006C000000
000000000000
FFFFFFFFFF10
F30000000000
F30000000000
F30000000000
F30000000000
FFFFFFFFFA00
F30000000000
F30000000000
F30000000000
F30000000000
F30000000000
FFFFFFFFFF30
ENDCHAR
STARTCHAR Eacute
ENCODING 201
SWIDTH 754 0
DWIDTH 14 0
BBX 11 16 2 0
BITMAP
0000005B0000
00003BD60000
0000C5000000
000000000000
FFFFFFFFFF10
F30000000000
F30000000000
F30000000000
F30000000000
FFFFFFFFFA00
F30000000000
F30000000000
F30000000000
F30000000000
F30000000000
FFFFFFFFFF30
ENDCHAR
STARTCHAR Ecircumflex
ENCODING 202
SWIDTH 754 0
DWIDTH 14 0
BBX 11 16 2 0
BITMAP
0001A9100000
004D77D40000
03A1002A3000
000000000000
FFFFFFFFFF10
F30000000000
F30000000000
F30000000000
F30000000000
FFFFFFFFFA00
F30000000000
F30000000000
F30000000000
F30000000000
F30000000000
FFFFFFFFFF30
ENDCHAR
STARTCHAR Edieresis
ENCODING 203
SWIDTH 754 0
DWIDTH 14 0
BBX 11 14 2 0
BITMAP
007D00E60000
000000000000
FFFFFFFFFF10
F30000000000
F30000000000
F30000000000
F30000000000
FFFFFFFFFA00
F30000000000
F30000000000
F30000000000
F30000000000
F30000000000
FFFFFFFFFF30
ENDCHAR
STARTCHAR Igrave
ENCODING 204
SWIDTH 287 0
DWIDTH 5 0
BBX 5 16 -1 0
BITMAP
4A2000
29E710
002970
000000
000F20
000F20
000F20
000F20
000F20
000F20
000F20
000F20
000F20
000F20
000F20
000F20
ENDCHAR
STARTCHAR Iacute
ENCODING 205
SWIDTH 287 0
DWIDTH 5 0
BBX 5 16 1 0
BITMAP
001960
06EA30
5A3000
000000
0F2000
0F2000
0F2000
0F2000
0F2000
0F2000
0F2000
0F2000
0F2000
0F2000
0F2000
0F2000
ENDCHAR
STARTCHAR Icircumflex
ENCODING 206
SWIDTH 287 0
DWIDTH 5 0
BBX 7 16 -1 0
BITMAP
004C5000
08C5BA10
860005A0
00000000
000F2000
000F2000
000F2000
000F2000
000F2000
000F2000
000F2000
000F2000
000F2000
000F2000
000F2000
000F2000
ENDCHAR
STARTCHAR Idieresis
ENCODING 207
SWIDTH 287 0
DWIDTH 5 0
BBX 5 14 0 0
BITMAP
C704F0
000000
00F200
00F200
00F200
00F200
00F200
00F200
00F200
00F200
00F200
00F200
00F200
00F200
ENDCHAR
STARTCHAR Eth
ENCODING 208
SWIDTH 910 0
DWIDTH 16 0
BBX 16 12 0 0
BITMAP
00FFFFFFEDB72000
00F20000135AF700
00F2000000004E50
00F20000000007C0
00F20000000002F1
BFFFFFFF100000E3
00F20000000000E3
00F20000000001F1
00F20000000007C0
00F2000000003E50
00F200001249E600
00FFFFFFEDB72000
ENDCHAR
STARTCHAR Ntilde
ENCODING 209
SWIDTH 936 0
DWIDTH 17 0
BBX 13 15 2 0
BITMAP
0002DD71770000
0009529EC10000
00000000000000
FB0000000004C0
FDB000000004C0
F3CA00000004C0
F21CA0000004C0
F201CA000004C0
F2001CA00004C0
F20001CA0004C0
F200001CA004C0
F2000001CA04C0
F20000001CA4C0
F200000001CCC0
F2000000001CC0
ENDCHAR
STARTCHAR Ograve
ENCODING 210
SWIDTH 983 0
DWIDTH 18 0
BBX 16 16 1 0
BITMAP
00001B4000000000
000007EA20000000
00000017B0000000
0000000000000000
00027BDFEDB71000
008E84101249E600
09B1000000003D60
3E100000000004E1
98000000000000C5
C6000000000000A7
B6000000000000A7
98000000000000C5
4E100000000004E1
0AB1000000003D60
009E84100249E600
00038CEFFDB71000
ENDCHAR
STARTCHAR Oacute
ENCODING 211
SWIDTH 983 0
DWIDTH 18 0
BBX 16 16 1 0
BITMAP
0000000006A00000
00000003CC500000
0000001C50000000
0000000000000000
00027BDFEDB71000
008E84101249E600
09B1000000003D60
3E100000000004E1
98000000000000C5
C6000000000000A7
B6000000000000A7
98000000000000C5
4E100000000004E1
0AB1000000003D60
009E84100249E600
00038CEFFDB71000
ENDCHAR
STARTCHAR Ocircumflex
ENCODING 212
SWIDTH 983 0
DWIDTH 18 0
BBX 16 16 1 0
BITMAP
0000002B80000000
000005D68C300000
0000491002B10000
0000000000000000
00027BDFEDB71000
008E84101249E600
09B1000000003D60
3E100000000004E1
98000000000000C5
C6000000000000A7
B6000000000000A7
98000000000000C5
4E100000000004E1
0AB1000000003D60
009E84100249E600
00038CEFFDB71000
ENDCHAR
STARTCHAR Otilde
ENCODING 213
SWIDTH 983 0
DWIDTH 18 0
BBX 16 15 1 0
BITMAP
000008EA41D00000
00002C16CE600000
0000000000000000
00027BDFEDB71000
008E84101249E600
09B1000000003D60
3E100000000004E1
98000000000000C5
C6000000000000A7
B6000000000000A7
98000000000000C5
4E100000000004E1
0AB1000000003D60
009E84100249E600
00038CEFFDB71000
ENDCHAR
STARTCHAR Odieresis
ENCODING 214
SWIDTH 983 0
DWIDTH 18 0
BBX 16 14 1 0
BITMAP
000008C00F400000
0000000000000000
00027BDFEDB71000
008E84101249E600
09B1000000003D60
3E100000000004E1
98000000000000C5
C6000000000000A7
B6000000000000A7
98000000000000C5
4E100000000004E1
0AB1000000003D60
009E84100249E600
00038CEFFDB71000
ENDCHAR
STARTCHAR multiply
ENCODING 215
SWIDTH 634 0
DWIDTH 11 0
BBX 8 7 2 2
BITMAP
A40001B2
3D401C70
02D6C700
003FA000
02D6C600
2D501C70
A40001B2
ENDCHAR
STARTCHAR Oslash
ENCODING 216
SWIDTH 983 0
DWIDTH 18 0
BBX 16 14 1 -1
BITMAP
000000000000A700
00027BDFEDAA9000
008E8410128DE500
09B1000002D23E50
3E1000000C5004E1
98000000880000D5
C6000005C00000A7
B600002D200000A7
980000C4000000C5
4E100980000004E1
0AB15C0000003D60
009EE5100249E600
001C9BEFFDB71000
00B6000000000000
ENDCHAR
STARTCHAR Ugrave
ENCODING 217
SWIDTH 891 0
DWIDTH 16 0
BBX 14 16 1 0
BITMAP
0000B500000000
00006DB3000000
0000005C000000
00000000000000
1F0000000000F2
1F0000000000F2
1F0000000000F2
1F0000000000F2
1F0000000000F2
1F0000000000F2
1F0000000000F2
1F0000000000F2
0F1000000001F1
0B9000000008C0
02DB520025BD20
0016BEFFEB7100
ENDCHAR
STARTCHAR Uacute
ENCODING 218
SWIDTH 891 0
DWIDTH 16 0
BBX 14 16 1 0
BITMAP
000000005B0000
0000002BD60000
000000B6000000
00000000000000
1F0000000000F2
1F0000000000F2
1F0000000000F2
1F0000000000F2
1F0000000000F2
1F0000000000F2
1F0000000000F2
1F0000000000F2
0F1000000001F1
0B9000000008C0
02DB520025BD20
0016BEFFEB7100
ENDCHAR
STARTCHAR Ucircumflex
ENCODING 219
SWIDTH 891 0
DWIDTH 16 0
BBX 14 16 1 0
BITMAP
0000019A100000
00004D77D40000
0002A2001A3000
00000000000000
1F0000000000F2
1F0000000000F2
1F0000000000F2
1F0000000000F2
1F0000000000F2
1F0000000000F2
1F0000000000F2
1F0000000000F2
0F1000000001F1
0B9000000008C0
02DB520025BD20
0016BEFFEB7100
ENDCHAR
STARTCHAR Udieresis
ENCODING 220
SWIDTH 891 0
DWIDTH 16 0
BBX 14 14 1 0
BITMAP
00006E00D70000
00000000000000
1F0000000000F2
1F0000000000F2
1F0000000000F2
1F0000000000F2
1F0000000000F2
1F0000000000F2
1F0000000000F2
1F0000000000F2
0F1000000001F1
0B9000000008C0
02DB520025BD20
0016BEFFEB7100
ENDCHAR
STARTCHAR Yacute
ENCODING 221
SWIDTH 763 0
DWIDTH 14 0
BBX 13 16 0 0
BITMAP
000000006A0000
0000003CC50000
000001C5000000
00000000000000
1D500000000AA0
03E30000007C10
005D200004E200
0007C0002E4000
0000AA01D60000
00001C7B900000
000002EB000000
000000A6000000
000000A6000000
000000A6000000
000000A6000000
000000A6000000
ENDCHAR
STARTCHAR Thorn
ENCODING 222
SWIDTH 787 0
DWIDTH 14 0
BBX 12 12 2 0
BITMAP
F20000000000
F20000000000
FFFFFFFDA500
F20000126E70
F200000004E0
F200000001F1
F200000005E0
F20000026E70
FFFFFFFDA500
F20000000000
F20000000000
F20000000000
ENDCHAR
STARTCHAR germandbls
ENCODING 223
SWIDTH 863 0
DWIDTH 16 0
BBX 14 12 1 0
BITMAP
0017CEFEDA5000
03E9410126CB00
0E500000001D50
4D000000000D50
5C00000014BB00
5C006FFFFFB200
5C000001259E60
5C0000000003E3
5C0000000000B7
5C0000000001D4
5C079520126DA0
5C016ADEEDA500
ENDCHAR
STARTCHAR agrave
ENCODING 224
SWIDTH 888 0
DWIDTH 16 0
BBX 14 16 1 0
BITMAP
0000B400000000
00006DA2000000
0000006B000000
00000000000000
0159CEFEDB6000
0A95210126CD20
000000000009B0
000000000002F0
000000000000F1
0000268ABCEFF1
029EC9754211F1
4E7100000000F1
C60000000000F1
D60000000003F1
6F83101258CCF1
04ADEFECA620F1
ENDCHAR
STARTCHAR aacute
ENCODING 225
SWIDTH 888 0
DWIDTH 16 0
BBX 14 16 1 0
BITMAP
000000005A0000
0000003CD50000
000001C5000000
00000000000000
0159CEFEDB6000
0A95210126CD20
000000000009B0
000000000002F0
000000000000F1
0000268ABCEFF1
029EC9754211F1
4E7100000000F1
C60000000000F1
D60000000003F1
6F83101258CCF1
04ADEFECA620F1
ENDCHAR
STARTCHAR acircumflex
ENCODING 226
SWIDTH 888 0
DWIDTH 16 0
BBX 14 16 1 0
BITMAP
000001A9100000
00005D68C30000
000491002A2000
00000000000000
0159CEFEDB6000
0A95210126CD20
000000000009B0
000000000002F0
000000000000F1
0000268ABCEFF1
029EC9754211F1
4E7100000000F1
C60000000000F1
D60000000003F1
6F83101258CCF1
04ADEFECA620F1
ENDCHAR
STARTCHAR atilde
ENCODING 227
SWIDTH 888 0
DWIDTH 16 0
BBX 14 15 1 0
BITMAP
00008EB41D0000
0001C15CE70000
00000000000000
0159CEFEDB6000
0A95210126CD20
000000000009B0
000000000002F0
000000000000F1
0000268ABCEFF1
029EC9754211F1
4E7100000000F1
C60000000000F1
D60000000003F1
6F83101258CCF1
04ADEFECA620F1
ENDCHAR
STARTCHAR adieresis
ENCODING 228
SWIDTH 888 0
DWIDTH 16 0
BBX 14 14 1 0
BITMAP
00007C00E50000
00000000000000
0159CEFEDB6000
0A95210126CD20
000000000009B0
000000000002F0
000000000000F1
0000268ABCEFF1
029EC9754211F1
4E7100000000F1
C60000000000F1
D60000000003F1
6F83101258CCF1
04ADEFECA620F1
ENDCHAR
STARTCHAR aring
ENCODING 229
SWIDTH 888 0
DWIDTH 16 0
BBX 14 16 1 0
BITMAP
00001AEE900000
00005B12D20000
00001AEE900000
00000000000000
0159CEFEDB6000
0A95210126CD20
000000000009B0
000000000002F0
000000000000F1
0000268ABCEFF1
029EC9754211F1
4E7100000000F1
C60000000000F1
D60000000003F1
6F83101258CCF1
04ADEFECA620F1
ENDCHAR
STARTCHAR ae
ENCODING 230
SWIDTH 1551 0
DWIDTH 28 0
BBX 26 12 1 0
BITMAP
0159CEFEDA6100049DEFDA6000
0A95210126CD21BC521025AD20
000000000009CC6000000005D1
000000000002F9000000000097
000000000000F300000000004C
0000268ABCEFFFFFFFFFFFFFFE
029ED9754211F2000000000000
4E7100000000E6000000000000
C600000000009D000000000000
D60000000004CEB10000000000
6F83101258DB41AE84100147B0
04ADEFEDA62000039CEFFDB720
ENDCHAR
STARTCHAR ccedilla
ENCODING 231
SWIDTH 869 0
DWIDTH 16 0
BBX 14 16 1 -4
BITMAP
00027BDFEC8200
007E9421126C91
09C10000000055
3E100000000000
98000000000000
C6000000000000
C6000000000000
98000000000000
3E100000000000
09B10000000055
008E8410126B91
00027BEFEC8200
0000002A000000
0000006FC10000
00000001B50000
00000AFFB10000
ENDCHAR
STARTCHAR egrave
ENCODING 232
SWIDTH 910 0
DWIDTH 16 0
BBX 15 16 1 0
BITMAP
0000970000000000
00004CD400000000
0000004B20000000
0000000000000000
00028CEFEB710000
008D7310149E5000
09A100000003D400
3D00000000005B00
9700000000000E10
BFFFFFFFFFFFFF30
B600000000000000
9A00000000000000
4F30000000000000
09D3000000000000
008EA5210136B300
00028BEFFEC84000
ENDCHAR
STARTCHAR eacute
ENCODING 233
SWIDTH 910 0
DWIDTH 16 0
BBX 15 16 1 0
BITMAP
000000003B200000
00000019E7100000
000000A710000000
0000000000000000
00028CEFEB710000
008D7310149E5000
09A100000003D400
3D00000000005B00
9700000000000E10
BFFFFFFFFFFFFF30
B600000000000000
9A00000000000000
4F30000000000000
09D3000000000000
008EA5210136B300
00028BEFFEC84000
ENDCHAR
STARTCHAR ecircumflex
ENCODING 234
SWIDTH 910 0
DWIDTH 16 0
BBX 15 16 1 0
BITMAP
0000007C20000000
00002C95D6000000
0001B30018600000
0000000000000000
00028CEFEB710000
008D7310149E5000
09A100000003D400
3D00000000005B00
9700000000000E10
BFFFFFFFFFFFFF30
B600000000000000
9A00000000000000
4F30000000000000
09D3000000000000
008EA5210136B300
00028BEFFEC84000
ENDCHAR
STARTCHAR edieresis
ENCODING 235
SWIDTH 910 0
DWIDTH 16 0
BBX 15 14 1 0
BITMAP
00003F20A9000000
0000000000000000
00028CEFEB710000
008D7310149E5000
09A100000003D400
3D00000000005B00
9700000000000E10
BFFFFFFFFFFFFF30
B600000000000000
9A00000000000000
4F30000000000000
09D3000000000000
008EA5210136B300
00028BEFFEC84000
ENDCHAR
STARTCHAR igrave
ENCODING 236
SWIDTH 287 0
DWIDTH 5 0
BBX 5 16 -1 0
BITMAP
4A2000
29E810
002980
000000
000F20
000F20
000F20
000F20
000F20
000F20
000F20
000F20
000F20
000F20
000F20
000F20
ENDCHAR
STARTCHAR iacute
ENCODING 237
SWIDTH 287 0
DWIDTH 5 0
BBX 5 16 1 0
BITMAP
001870
06EA30
5A3000
000000
0F2000
0F2000
0F2000
0F2000
0F2000
0F2000
0F2000
0F2000
0F2000
0F2000
0F2000
0F2000
ENDCHAR
STARTCHAR icircumflex
ENCODING 238
SWIDTH 287 0
DWIDTH 5 0
BBX 7 16 -1 0
BITMAP
004C5000
08C5BA10
860005A0
00000000
000F2000
000F2000
000F2000
000F2000
000F2000
000F2000
000F2000
000F2000
000F2000
000F2000
000F2000
000F2000
ENDCHAR
STARTCHAR idieresis
ENCODING 239
SWIDTH 287 0
DWIDTH 5 0
BBX 5 14 0 0
BITMAP
C704F0
000000
00F200
00F200
00F200
00F200
00F200
00F200
00F200
00F200
00F200
00F200
00F200
00F200
ENDCHAR
STARTCHAR eth
ENCODING 240
SWIDTH 910 0
DWIDTH 16 0
BBX 16 12 0 0
BITMAP
00FFFFFFEDB72000
00F20000135AF700
00F2000000004E50
00F20000000007C0
00F20000000002F1
BFFFFFFF100000E3
00F20000000000E3
00F20000000001F1
00F20000000007C0
00F2000000003E50
00F200001249E600
00FFFFFFEDB72000
ENDCHAR
STARTCHAR ntilde
ENCODING 241
SWIDTH 933 0
DWIDTH 17 0
BBX 13 15 2 0
BITMAP
0004EC61A40000
000C23AEA00000
00000000000000
F2005ADEED8100
F27DA631139D10
FDA20000000A80
F50000000005B0
F20000000004C0
F20000000004C0
F20000000004C0
F20000000004C0
F20000000004C0
F20000000004C0
F20000000004C0
F20000000004C0
ENDCHAR
STARTCHAR ograve
ENCODING 242
SWIDTH 983 0
DWIDTH 18 0
BBX 16 16 1 0
BITMAP
00001B4000000000
000007EA20000000
00000017B0000000
0000000000000000
00027BDFEDB71000
008E84101249E600
09B1000000003D60
3E100000000004E1
98000000000000C5
C6000000000000A7
B6000000000000A7
98000000000000C5
4E100000000004E1
0AB1000000003D60
009E84100249E600
00038CEFFDB71000
ENDCHAR
STARTCHAR oacute
ENCODING 243
SWIDTH 983 0
DWIDTH 18 0
BBX 16 16 1 0
BITMAP
0000000006A00000
00000003CC500000
0000001C50000000
0000000000000000
00027BDFEDB71000
008E84101249E600
09B1000000003D60
3E100000000004E1
98000000000000C5
C6000000000000A7
B6000000000000A7
98000000000000C5
4E100000000004E1
0AB1000000003D60
009E84100249E600
00038CEFFDB71000
ENDCHAR
STARTCHAR ocircumflex
ENCODING 244
SWIDTH 983 0
DWIDTH 18 0
BBX 16 16 1 0
BITMAP
0000002B80000000
000005D68C300000
0000491002B10000
0000000000000000
00027BDFEDB71000
008E84101249E600
09B1000000003D60
3E100000000004E1
98000000000000C5
C6000000000000A7
B6000000000000A7
98000000000000C5
4E100000000004E1
0AB1000000003D60
009E84100249E600
00038CEFFDB71000
ENDCHAR
STARTCHAR otilde
ENCODING 245
SWIDTH 983 0
DWIDTH 18 0
BBX 16 15 1 0
BITMAP
000008EA41D00000
00002C16CE600000
0000000000000000
00027BDFEDB71000
008E84101249E600
09B1000000003D60
3E100000000004E1
98000000000000C5
C6000000000000A7
B6000000000000A7
98000000000000C5
4E100000000004E1
0AB1000000003D60
009E84100249E600
00038CEFFDB71000
ENDCHAR
STARTCHAR odieresis
ENCODING 246
SWIDTH 983 0
DWIDTH 18 0
BBX 16 14 1 0
BITMAP
000008C00F400000
0000000000000000
00027BDFEDB71000
008E84101249E600
09B1000000003D60
3E100000000004E1
98000000000000C5
C6000000000000A7
B6000000000000A7
98000000000000C5
4E100000000004E1
0AB1000000003D60
009E84100249E600
00038CEFFDB71000
ENDCHAR
STARTCHAR divide
ENCODING 247
SWIDTH 634 0
DWIDTH 11 0
BBX 9 7 1 3
BITMAP
0000D40000
0000000000
0000000000
7FFFFFFFE0
0000000000
0000000000
0000D40000
ENDCHAR
STARTCHAR oslash
ENCODING 248
SWIDTH 983 0
DWIDTH 18 0
BBX 16 14 1 -1
BITMAP
000000000000A700
00027BDFEDAA9000
008E8410128DE500
09B1000002D23E50
3E1000000C5004E1
98000000880000D5
C6000005C00000A7
B600002D200000A7
980000C4000000C5
4E100980000004E1
0AB15C0000003D60
009EE5100249E600
001C9BEFFDB71000
00B6000000000000
ENDCHAR
STARTCHAR ugrave
ENCODING 249
SWIDTH 931 0
DWIDTH 17 0
BBX 13 16 2 0
BITMAP
00078100000000
0003BD60000000
000003A5000000
00000000000000
F10000000006B0
F10000000006B0
F10000000006B0
F10000000006B0
F10000000006B0
F10000000006B0
F10000000006B0
F10000000006B0
F20000000009B0
B700000003BEB0
3E721136CC56B0
029DFEC94006B0
ENDCHAR
STARTCHAR uacute
ENCODING 250
SWIDTH 931 0
DWIDTH 17 0
BBX 13 16 2 0
BITMAP
00000002A30000
0000018E810000
00000881000000
00000000000000
F10000000006B0
F10000000006B0
F10000000006B0
F10000000006B0
F10000000006B0
F10000000006B0
F10000000006B0
F10000000006B0
F20000000009B0
B700000003BEB0
3E721136CC56B0
029DFEC94006B0
ENDCHAR
STARTCHAR ucircumflex
ENCODING 251
SWIDTH 931 0
DWIDTH 17 0
BBX 13 16 2 0
BITMAP
000006C3000000
0001AA5C800000
000A4000780000
00000000000000
F10000000006B0
F10000000006B0
F10000000006B0
F10000000006B0
F10000000006B0
F10000000006B0
F10000000006B0
F10000000006B0
F20000000009B0
B700000003BEB0
3E721136CC56B0
029DFEC94006B0
ENDCHAR
STARTCHAR udieresis
ENCODING 252
SWIDTH 931 0
DWIDTH 17 0
BBX 13 14 2 0
BITMAP
0001F408C00000
00000000000000
F10000000006B0
F10000000006B0
F10000000006B0
F10000000006B0
F10000000006B0
F10000000006B0
F10000000006B0
F10000000006B0
F20000000009B0
B700000003BEB0
3E721136CC56B0
029DFEC94006B0
ENDCHAR
STARTCHAR yacute
ENCODING 253
SWIDTH 911 0
DWIDTH 16 0
BBX 14 16 1 0
BITMAP
000000005B0000
0000003BD60000
000000C5000000
00000000000000
6B0000000000B5
6B0000000000B5
6B0000000000B5
5D0000000000C5
2F1000000006F5
0C800000007DD5
02DA41015CB2B5
0017CEFDA400C5
000000000001E3
00000000001BB0
5A63100248EB10
059CEFFEC94000
ENDCHAR
STARTCHAR thorn
ENCODING 254
SWIDTH 787 0
DWIDTH 14 0
BBX 12 12 2 0
BITMAP
F20000000000
F20000000000
FFFFFFFDA500
F20000126E70
F200000004E0
F200000001F1
F200000005E0
F20000026E70
FFFFFFFDA500
F20000000000
F20000000000
F20000000000
ENDCHAR
STARTCHAR ydieresis
ENCODING 255
SWIDTH 911 0
DWIDTH 16 0
BBX 14 14 1 0
BITMAP
00007D00E60000
00000000000000
6B0000000000B5
6B0000000000B5
6B0000000000B5
5D0000000000C5
2F1000000006F5
0C800000007DD5
02DA41015CB2B5
0017CEFDA400C5
000000000001E3
00000000001BB0
5A63100248EB10
059CEFFEC94000
ENDCHAR
STARTCHAR Amacron
ENCODING 256
SWIDTH 812 0
DWIDTH 15 0
BBX 15 14 0 0
BITMAP
00001FFFFB000000
0000000000000000
0000009F30000000
000002E9B0000000
00000991E4000000
00003E206C000000
0000A8000D500000
0003E10006D00000
000B800000D60000
004E1000006D0000
00CFFFFFFFFF7000
05D100000005E100
0D6000000000B800
6C00000000003E10
ENDCHAR
STARTCHAR amacron
ENCODING 257
SWIDTH 888 0
DWIDTH 16 0
BBX 14 14 1 0
BITMAP
00007FFFF50000
00000000000000
0159CEFEDB6000
0A95210126CD20
000000000009B0
000000000002F0
000000000000F1
0000268ABCEFF1
029EC9754211F1
4E7100000000F1
C60000000000F1
D60000000003F1
6F83101258CCF1
04ADEFECA620F1
ENDCHAR
STARTCHAR Abreve
ENCODING 258
SWIDTH 812 0
DWIDTH 15 0
BBX 15 15 0 0
BITMAP
00007A204D200000
000008DFC4000000
0000000000000000
0000009F30000000
000002E9B0000000
00000991E4000000
00003E206C000000
0000A8000D500000
0003E10006D00000
000B800000D60000
004E1000006D0000
00CFFFFFFFFF7000
05D100000005E100
0D6000000000B800
6C00000000003E10
ENDCHAR
STARTCHAR abreve
ENCODING 259
SWIDTH 888 0
DWIDTH 16 0
BBX 14 15 1 0
BITMAP
0000D6118B0000
00002BEEA10000
00000000000000
0159CEFEDB6000
0A95210126CD20
000000000009B0
000000000002F0
000000000000F1
0000268ABCEFF1
029EC9754211F1
4E7100000000F1
C60000000000F1
D60000000003F1
6F83101258CCF1
04ADEFECA620F1
ENDCHAR
STARTCHAR Aogonek
ENCODING 260
SWIDTH 812 0
DWIDTH 15 0
BBX 16 15 0 -3
BITMAP
0000009F30000000
000002E9B0000000
00000991E4000000
00003E206C000000
0000A8000D500000
0003E10006D00000
000B800000D60000
004E1000006D0000
00CFFFFFFFFF7000
05D100000005E100
0D6000000000B800
6C00000000003E10
0000000000009600
000000000005B100
000000000002CFF7
ENDCHAR
STARTCHAR aogonek
ENCODING 261
SWIDTH 888 0
DWIDTH 16 0
BBX 15 15 1 -3
BITMAP
0159CEFEDB600000
0A95210126CD2000
000000000009B000
000000000002F000
000000000000F100
0000268ABCEFF100
029EC9754211F100
4E7100000000F100
C60000000000F100
D60000000005F100
6F83101259DCF100
04ADEFECA620F100
00000000001A4000
0000000000790000
00000000003DFF50
ENDCHAR
STARTCHAR Cacute
ENCODING 262
SWIDTH 869 0
DWIDTH 16 0
BBX 14 16 1 0
BITMAP
00000000079000
00000004DB4000
0000002B400000
00000000000000
00027BDFEC8200
007E9421126C91
09C10000000055
3E100000000000
98000000000000
C6000000000000
C6000000000000
98000000000000
3E100000000000
09B10000000055
008E8410126B91
00027BDFEC8200
ENDCHAR
STARTCHAR cacute
ENCODING 263
SWIDTH 869 0
DWIDTH 16 0
BBX 14 16 1 0
BITMAP
00000000079000
00000004DC4000
0000002C400000
00000000000000
00027BDFEC8200
007E9421126C91
09C10000000055
3E100000000000
98000000000000
C6000000000000
C6000000000000
98000000000000
3E100000000000
09B10000000055
008E8410126B91
00027BDFEC8200
ENDCHAR
STARTCHAR Ccircumflex
ENCODING 264
SWIDTH 869 0
DWIDTH 16 0
BBX 14 16 1 0
BITMAP
0000002C700000
000006D59C2000
0000681003B100
00000000000000
00027BDFEC8200
007E9421126C91
09C10000000055
3E100000000000
98000000000000
C6000000000000
C6000000000000
98000000000000
3E100000000000
09B10000000055
008E8410126B91
00027BDFEC8200
ENDCHAR
STARTCHAR ccircumflex
ENCODING 265
SWIDTH 869 0
DWIDTH 16 0
BBX 14 16 1 0
BITMAP
0000002C700000
000006D59C2000
0000681003B100
00000000000000
00027BDFEC8200
007E9421126C91
09C10000000055
3E100000000000
98000000000000
C6000000000000
C6000000000000
98000000000000
3E100000000000
09B10000000055
008E8410126B91
00027BDFEC8200
ENDCHAR
STARTCHAR Cdotaccent
ENCODING 266
SWIDTH 869 0
DWIDTH 16 0
BBX 14 14 1 0
BITMAP
0000000E700000
00000000000000
00027BDFEC8200
007E9421126C91
09C10000000055
3E100000000000
98000000000000
C6000000000000
C6000000000000
98000000000000
3E100000000000
09B10000000055
008E8410126B91
00027BDFEC8200
ENDCHAR
STARTCHAR cdotaccent
ENCODING 267
SWIDTH 869 0
DWIDTH 16 0
BBX 14 14 1 0
BITMAP
0000000E700000
00000000000000
00027BDFEC8200
007E9421126C91
09C10000000055
3E100000000000
98000000000000
C6000000000000
C6000000000000
98000000000000
3E100000000000
09B10000000055
008E8410126B91
00027BDFEC8200
ENDCHAR
STARTCHAR Ccaron
ENCODING 268
SWIDTH 869 0
DWIDTH 16 0
BBX 14 16 1 0
BITMAP
0000681003B100
000006D59C2000
0000002C700000
00000000000000
00027BDFEC8200
007E9421126C91
09C10000000055
3E100000000000
98000000000000
C6000000000000
C6000000000000
98000000000000
3E100000000000
09B10000000055
008E8410126B91
00027BDFEC8200
ENDCHAR
STARTCHAR ccaron
ENCODING 269
SWIDTH 869 0
DWIDTH 16 0
BBX 14 16 1 0
BITMAP
0000681003B100
000006D59C2000
0000002C800000
00000000000000
00027BDFEC8200
007E9421126C91
09C10000000055
3E100000000000
98000000000000
C6000000000000
C6000000000000
98000000000000
3E100000000000
09B10000000055
008E8410126B91
00027BDFEC8200
ENDCHAR
STARTCHAR Dcaron
ENCODING 270
SWIDTH 910 0
DWIDTH 16 0
BBX 14 16 2 0
BITMAP
0491002B200000
005D68C3000000
0002B910000000
00000000000000
FFFFFFFEC82000
F200000148E700
F2000000003E50
F20000000007C0
F20000000002F1
F20000000000F3
F20000000000E2
F20000000001F1
F20000000006C0
F2000000003E50
F200000248E600
FFFFFFFEC82000
ENDCHAR
STARTCHAR dcaron
ENCODING 271
SWIDTH 910 0
DWIDTH 16 0
BBX 14 16 2 0
BITMAP
0491002B200000
005D68C3000000
0001B910000000
00000000000000
FFFFFFFEC82000
F200000148E700
F2000000003E50
F20000000007C0
F20000000002F1
F20000000000F3
F20000000000E2
F20000000001F1
F20000000006C0
F2000000003E50
F200000248E600
FFFFFFFEC82000
ENDCHAR
STARTCHAR Dcroat
ENCODING 272
SWIDTH 910 0
DWIDTH 16 0
BBX 16 12 0 0
BITMAP
00FFFFFFEDB72000
00F20000135AF700
00F2000000004E50
00F20000000007C0
00F20000000002F1
BFFFFFFF100000E3
00F20000000000E3
00F20000000001F1
00F20000000007C0
00F2000000003E50
00F200001249E600
00FFFFFFEDB72000
ENDCHAR
STARTCHAR dcroat
ENCODING 273
SWIDTH 910 0
DWIDTH 16 0
BBX 16 12 0 0
BITMAP
00FFFFFFEDB72000
00F20000135AF700
00F2000000004E50
00F20000000007C0
00F20000000002F1
BFFFFFFF100000E3
00F20000000000E3
00F20000000001F1
00F20000000007C0
00F2000000003E50
00F200001249E600
00FFFFFFEDB72000
ENDCHAR
STARTCHAR Emacron
ENCODING 274
SWIDTH 754 0
DWIDTH 14 0
BBX 11 14 2 0
BITMAP
007FFFF60000
000000000000
FFFFFFFFFF10
F30000000000
F30000000000
F30000000000
F30000000000
FFFFFFFFFA00
F30000000000
F30000000000
F30000000000
F30000000000
F30000000000
FFFFFFFFFF30
ENDCHAR
STARTCHAR emacron
ENCODING 275
SWIDTH 910 0
DWIDTH 16 0
BBX 15 14 1 0
BITMAP
00003FFFF9000000
0000000000000000
00028CEFEB710000
008D7310149E5000
09A100000003D400
3D00000000005B00
9700000000000E10
BFFFFFFFFFFFFF30
B600000000000000
9A00000000000000
4F30000000000000
09D3000000000000
008EA5210136B300
00028BEFFEC84000
ENDCHAR
STARTCHAR Ebreve
ENCODING 276
SWIDTH 754 0
DWIDTH 14 0
BBX 11 15 2 0
BITMAP
00D6117C0000
002BEEA20000
000000000000
FFFFFFFFFF10
F30000000000
F30000000000
F30000000000
F30000000000
FFFFFFFFFA00
F30000000000
F30000000000
F30000000000
F30000000000
F30000000000
FFFFFFFFFF30
ENDCHAR
STARTCHAR ebreve
ENCODING 277
SWIDTH 910 0
DWIDTH 16 0
BBX 15 15 1 0
BITMAP
000099215D100000
000019EFC3000000
0000000000000000
00028CEFEB710000
008D7310149E5000
09A100000003D400
3D00000000005B00
9700000000000E10
BFFFFFFFFFFFFF30
B600000000000000
9A00000000000000
4F30000000000000
09D3000000000000
008EA5210136B300
00028BEFFEC84000
ENDCHAR
STARTCHAR Edotaccent
ENCODING 278
SWIDTH 754 0
DWIDTH 14 0
BBX 11 14 2 0
BITMAP
0000BA000000
000000000000
FFFFFFFFFF10
F30000000000
F30000000000
F30000000000
F30000000000
FFFFFFFFFA00
F30000000000
F30000000000
F30000000000
F30000000000
F30000000000
FFFFFFFFFF30
ENDCHAR
STARTCHAR edotaccent
ENCODING 279
SWIDTH 910 0
DWIDTH 16 0
BBX 15 14 1 0
BITMAP
0000007E00000000
0000000000000000
00028CEFEB710000
008D7310149E5000
09A100000003D400
3D00000000005B00
9700000000000E10
BFFFFFFFFFFFFF30
B600000000000000
9A00000000000000
4F30000000000000
09D3000000000000
008EA5210136B300
00028BEFFEC84000
ENDCHAR
STARTCHAR Eogonek
ENCODING 280
SWIDTH 754 0
DWIDTH 14 0
BBX 11 15 2 -3
BITMAP
FFFFFFFFFF10
F30000000000
F30000000000
F30000000000
F30000000000
FFFFFFFFFA00
F30000000000
F30000000000
F30000000000
F30000000000
F30000000000
FFFFFFFFFF30
0000002B5100
000000880000
0000004DFF30
ENDCHAR
STARTCHAR eogonek
ENCODING 281
SWIDTH 910 0
DWIDTH 16 0
BBX 15 15 1 -3
BITMAP
00028CEFEB710000
008D7310149E5000
09A100000003D400
3D00000000005B00
9700000000000E10
BFFFFFFFFFFFFF30
B600000000000000
9A00000000000000
4F30000000000000
09D3000000000000
008EA5210136B300
00028BEFFECE6000
0000000000860000
0000000000C50000
00000000006EFF00
ENDCHAR
STARTCHAR Ecaron
ENCODING 282
SWIDTH 754 0
DWIDTH 14 0
BBX 11 16 2 0
BITMAP
03A1002A3000
004D77D40000
0001AA100000
000000000000
FFFFFFFFFF10
F30000000000
F30000000000
F30000000000
F30000000000
FFFFFFFFFA00
F30000000000
F30000000000
F30000000000
F30000000000
F30000000000
FFFFFFFFFF30
ENDCHAR
STARTCHAR ecaron
ENCODING 283
SWIDTH 910 0
DWIDTH 16 0
BBX 15 16 1 0
BITMAP
0001B30018600000
00002C95D6000000
0000008C20000000
0000000000000000
00028CEFEB710000
008D7310149E5000
09A100000003D400
3D00000000005B00
9700000000000E10
BFFFFFFFFFFFFF30
B600000000000000
9A00000000000000
4F30000000000000
09D3000000000000
008EA5210136B300
00028BEFFEC84000
ENDCHAR
STARTCHAR Gcircumflex
ENCODING 284
SWIDTH 910 0
DWIDTH 16 0
BBX 14 16 1 0
BITMAP
0000001B910000
000005D68C3000
0000491002A200
00000000000000
00017ADEFD9400
007E9521025BB2
08C20000000047
3E100000000000
99000000000000
C6000000000000
B6000002FFFFFE
9900000000003E
4E20000000003E
09D2000000003E
008EA52101248E
00027BDFFEDB73
ENDCHAR
STARTCHAR gcircumflex
ENCODING 285
SWIDTH 910 0
DWIDTH 16 0
BBX 14 16 1 0
BITMAP
0000001B910000
000005D68C3000
0000491002A200
00000000000000
00017ADEFD9400
007E9521025BB2
08C20000000047
3E100000000000
99000000000000
C6000000000000
B6000002FFFFFE
9900000000003E
4E20000000003E
09D2000000003E
008EA52101248E
00027BDFFEDB73
ENDCHAR
STARTCHAR Gbreve
ENCODING 286
SWIDTH 910 0
DWIDTH 16 0
BBX 14 15 1 0
BITMAP
00000D6118B000
000003BEEA1000
00000000000000
00017ADEFD9400
007E9521025BB2
08C20000000047
3E100000000000
99000000000000
C6000000000000
B6000002FFFFFE
9900000000003E
4E20000000003E
09D2000000003E
008EA52101248E
00027BDFFEDB73
ENDCHAR
STARTCHAR gbreve
ENCODING 287
SWIDTH 910 0
DWIDTH 16 0
BBX 14 15 1 0
BITMAP
00000D6118B000
000003BEEA1000
00000000000000
00017ADEFD9400
007E9521025BB2
08C20000000047
3E100000000000
99000000000000
C6000000000000
B6000002FFFFFE
9900000000003E
4E20000000003E
09D2000000003E
008EA52101248E
00027BDFFEDB73
ENDCHAR
STARTCHAR Gdotaccent
ENCODING 288
SWIDTH 910 0
DWIDTH 16 0
BBX 14 14 1 0
BITMAP
0000000C900000
00000000000000
00017ADEFD9400
007E9521025BB2
08C20000000047
3E100000000000
99000000000000
C6000000000000
B6000002FFFFFE
9900000000003E
4E20000000003E
09D2000000003E
008EA52101248E
00027BDFFEDB73
ENDCHAR
STARTCHAR gdotaccent
ENCODING 289
SWIDTH 910 0
DWIDTH 16 0
BBX 14 14 1 0
BITMAP
0000000C900000
00000000000000
00017ADEFD9400
007E9521025BB2
08C20000000047
3E100000000000
99000000000000
C6000000000000
B6000002FFFFFE
9900000000003E
4E20000000003E
09D2000000003E
008EA52101248E
00027BDFFEDB73
ENDCHAR
STARTCHAR Gcommaaccent
ENCODING 290
SWIDTH 910 0
DWIDTH 16 0
BBX 14 15 1 -3
BITMAP
00017ADEFD9400
007E9521025BB2
08C20000000047
3E100000000000
99000000000000
C6000000000000
B6000002FFFFFE
9900000000003E
4E20000000003E
09D2000000003E
008EA52101248E
00027BDFFEDB73
00000000000000
00000007A00000
0000000A500000
ENDCHAR
STARTCHAR gcommaaccent
ENCODING 291
SWIDTH 910 0
DWIDTH 16 0
BBX 14 15 1 -3
BITMAP
00017ADEFD9400
007E9521025BB2
08C20000000047
3E100000000000
99000000000000
C6000000000000
B6000002FFFFFE
9900000000003E
4E20000000003E
09D2000000003E
008EA52101248E
00027BDFFEDB73
00000000000000
00000007A00000
0000000A500000
ENDCHAR
STARTCHAR Hcircumflex
ENCODING 292
SWIDTH 949 0
DWIDTH 17 0
BBX 14 16 2 0
BITMAP
000004C5000000
00008C5BA10000
000860005A0000
00000000000000
F20000000001F1
F20000000001F1
F20000000001F1
F20000000001F1
F20000000001F1
FFFFFFFFFFFFF1
F20000000001F1
F20000000001F1
F20000000001F1
F20000000001F1
F20000000001F1
F20000000001F1
ENDCHAR
STARTCHAR hcircumflex
ENCODING 293
SWIDTH 949 0
DWIDTH 17 0
BBX 14 16 2 0
BITMAP
000004C5000000
00008C5BA10000
000860005A0000
00000000000000
F20000000001F1
F20000000001F1
F20000000001F1
F20000000001F1
F20000000001F1
FFFFFFFFFFFFF1
F20000000001F1
F20000000001F1
F20000000001F1
F20000000001F1
F20000000001F1
F20000000001F1
ENDCHAR
STARTCHAR Hbar
ENCODING 294
SWIDTH 949 0
DWIDTH 17 0
BBX 17 12 0 0
BITMAP
00F20000000001F100
00F20000000001F100
8FFFFFFFFFFFFFFF90
00F20000000001F100
00F20000000001F100
00FFFFFFFFFFFFF100
00F20000000001F100
00F20000000001F100
00F20000000001F100
00F20000000001F100
00F20000000001F100
00F20000000001F100
ENDCHAR
STARTCHAR hbar
ENCODING 295
SWIDTH 949 0
DWIDTH 17 0
BBX 17 12 0 0
BITMAP
00F20000000001F100
00F20000000001F100
8FFFFFFFFFFFFFFF90
00F20000000001F100
00F20000000001F100
00FFFFFFFFFFFFF100
00F20000000001F100
00F20000000001F100
00F20000000001F100
00F20000000001F100
00F20000000001F100
00F20000000001F100
ENDCHAR
STARTCHAR Itilde
ENCODING 296
SWIDTH 287 0
DWIDTH 5 0
BBX 7 15 -1 0
BITMAP
1CE82590
6828DD30
00000000
000F2000
000F2000
000F2000
000F2000
000F2000
000F2000
000F2000
000F2000
000F2000
000F2000
000F2000
000F2000
ENDCHAR
STARTCHAR itilde
ENCODING 297
SWIDTH 287 0
DWIDTH 5 0
BBX 7 15 -1 0
BITMAP
1BE92590
6828DD30
00000000
000F2000
000F2000
000F2000
000F2000
000F2000
000F2000
000F2000
000F2000
000F2000
000F2000
000F2000
000F2000
ENDCHAR
STARTCHAR Imacron
ENCODING 298
SWIDTH 287 0
DWIDTH 5 0
BBX 5 14 0 0
BITMAP
CFFFF0
000000
00F200
00F200
00F200
00F200
00F200
00F200
00F200
00F200
00F200
00F200
00F200
00F200
ENDCHAR
STARTCHAR imacron
ENCODING 299
SWIDTH 287 0
DWIDTH 5 0
BBX 5 14 0 0
BITMAP
CFFFF0
000000
00F200
00F200
00F200
00F200
00F200
00F200
00F200
00F200
00F200
00F200
00F200
00F200
ENDCHAR
STARTCHAR Ibreve
ENCODING 300
SWIDTH 287 0
DWIDTH 5 0
BBX 7 15 -1 0
BITMAP
4D302B60
05DFE700
00000000
000F2000
000F2000
000F2000
000F2000
000F2000
000F2000
000F2000
000F2000
000F2000
000F2000
000F2000
000F2000
ENDCHAR
STARTCHAR ibreve
ENCODING 301
SWIDTH 287 0
DWIDTH 5 0
BBX 7 15 -1 0
BITMAP
3D302B60
05DFE700
00000000
000F2000
000F2000
000F2000
000F2000
000F2000
000F2000
000F2000
000F2000
000F2000
000F2000
000F2000
000F2000
ENDCHAR
STARTCHAR Iogonek
ENCODING 302
SWIDTH 287 0
DWIDTH 5 0
BBX 5 15 0 -3
BITMAP
00F200
00F200
00F200
00F200
00F200
00F200
00F200
00F200
00F200
00F200
00F200
00F200
1A3000
890000
4DFF40
ENDCHAR
STARTCHAR iogonek
ENCODING 303
SWIDTH 287 0
DWIDTH 5 0
BBX 5 15 0 -3
BITMAP
00F200
00F200
00F200
00F200
00F200
00F200
00F200
00F200
00F200
00F200
00F200
00F200
1A3000
890000
4DFF40
ENDCHAR
STARTCHAR Idotaccent
ENCODING 304
SWIDTH 287 0
DWIDTH 5 0
BBX 3 14 1 0
BITMAP
2F40
0000
0F20
0F20
0F20
0F20
0F20
0F20
0F20
0F20
0F20
0F20
0F20
0F20
ENDCHAR
STARTCHAR dotlessi
ENCODING 305
SWIDTH 287 0
DWIDTH 5 0
BBX 2 12 2 0
BITMAP
F2
F2
F2
F2
F2
F2
F2
F2
F2
F2
F2
F2
ENDCHAR
STARTCHAR IJ
ENCODING 306
SWIDTH 877 0
DWIDTH 16 0
BBX 12 12 2 0
BITMAP
F2000000004C
F2000000004C
F2000000004C
F2000000004C
F2000000004C
F2000000004C
F2000000004C
F2000000004C
F2000000005C
F200000000A8
F20A62103AD1
F2028CEEC810
ENDCHAR
STARTCHAR ij
ENCODING 307
SWIDTH 877 0
DWIDTH 16 0
BBX 12 12 2 0
BITMAP
F2000000004C
F2000000004C
F2000000004C
F2000000004C
F2000000004C
F2000000004C
F2000000004C
F2000000004C
F2000000005C
F200000000A8
F20A62103AD1
F2028CEEC810
ENDCHAR
STARTCHAR Jcircumflex
ENCODING 308
SWIDTH 590 0
DWIDTH 11 0
BBX 12 16 0 0
BITMAP
00000019B200
000003C86D50
00001B200194
000000000000
00000007A000
00000007A000
00000007A000
00000007A000
00000007A000
00000007A000
00000007A000
00000007A000
000000079000
0000001C6000
B62114BC0000
39DFEC600000
ENDCHAR
STARTCHAR jcircumflex
ENCODING 309
SWIDTH 590 0
DWIDTH 11 0
BBX 12 16 0 0
BITMAP
00000019B200
000003C86D50
00001B200194
000000000000
00000007A000
00000007A000
00000007A000
00000007A000
00000007A000
00000007A000
00000007A000
00000007A000
000000079000
0000001C6000
B62114BC0000
39DFEC600000
ENDCHAR
STARTCHAR Kcommaaccent
ENCODING 310
SWIDTH 806 0
DWIDTH 15 0
BBX 12 15 2 -3
BITMAP
F200000019B2
F2000005D600
F20002BB2000
F2007D500000
F23CA1000000
FAF500000000
F4CC20000000
F207E7000000
F2002CC20000
F200007E7000
F2000002CC20
F200000007E7
000000000000
00005D000000
000077000000
ENDCHAR
STARTCHAR kcommaaccent
ENCODING 311
SWIDTH 867 0
DWIDTH 16 0
BBX 13 15 2 -3
BITMAP
F2000000008900
F200000001D400
F20000000AA000
F2000002BB1000
F20126AC500000
FFFFFFA2000000
F201258EB20000
F20000017E5000
F200000004E300
F2000000008C00
F2000000000E30
F2000000000B60
00000000000000
00000B60000000
00000E10000000
ENDCHAR
STARTCHAR kgreenlandic
ENCODING 312
SWIDTH 867 0
DWIDTH 16 0
BBX 13 12 2 0
BITMAP
F2000000008900
F200000001D400
F20000000AA000
F2000002BB1000
F20126AC500000
FFFFFFA2000000
F201258EB20000
F20000017E5000
F200000004E300
F2000000008C00
F2000000000E30
F2000000000B60
ENDCHAR
STARTCHAR Lacute
ENCODING 313
SWIDTH 701 0
DWIDTH 13 0
BBX 11 16 1 0
BITMAP
001870000000
06EA30000000
5A3000000000
000000000000
0F2000000000
0F2000000000
0F2000000000
0F2000000000
0F2000000000
0F2000000000
0F2000000000
0F2000000000
0F2000000000
0F2000000000
0F2000000000
0FFFFFFFFFE0
ENDCHAR
STARTCHAR lacute
ENCODING 314
SWIDTH 709 0
DWIDTH 13 0
BBX 12 16 1 0
BITMAP
001870000000
06EA30000000
5A3000000000
000000000000
0F2000000000
0F2000000000
0F2000000000
0F2000000000
0F2000000000
0F2000000000
0F2000000000
0F2000000000
0E3000000000
0C5000000000
06E520000000
005BEFFFFFF9
ENDCHAR
STARTCHAR Lcommaaccent
ENCODING 315
SWIDTH 701 0
DWIDTH 13 0
BBX 10 15 2 -3
BITMAP
F200000000
F200000000
F200000000
F200000000
F200000000
F200000000
F200000000
F200000000
F200000000
F200000000
F200000000
FFFFFFFFFE
0000000000
00007A0000
0000A50000
ENDCHAR
STARTCHAR lcommaaccent
ENCODING 316
SWIDTH 709 0
DWIDTH 13 0
BBX 11 15 2 -3
BITMAP
F20000000000
F20000000000
F20000000000
F20000000000
F20000000000
F20000000000
F20000000000
F20000000000
E30000000000
C50000000000
6E5200000000
05BEFFFFFF90
000000000000
00002F100000
00004B000000
ENDCHAR
STARTCHAR Lcaron
ENCODING 317
SWIDTH 701 0
DWIDTH 13 0
BBX 10 12 2 0
BITMAP
F20000B700
F20000E200
F20002C000
F200000000
F200000000
F200000000
F200000000
F200000000
F200000000
F200000000
F200000000
FFFFFFFFFE
ENDCHAR
STARTCHAR lcaron
ENCODING 318
SWIDTH 709 0
DWIDTH 13 0
BBX 11 12 2 0
BITMAP
F20000B70000
F20000E20000
F20002C00000
F20000000000
F20000000000
F20000000000
F20000000000
F20000000000
E30000000000
C50000000000
6E5200000000
05BEFFFFFF90
ENDCHAR
STARTCHAR Ldot
ENCODING 319
SWIDTH 701 0
DWIDTH 13 0
BBX 10 12 2 0
BITMAP
F200000000
F200000000
F200000000
F200000000
F200000000
F20000E900
F20000E900
F200000000
F200000000
F200000000
F200000000
FFFFFFFFFE
ENDCHAR
STARTCHAR ldotaccent
ENCODING 320
SWIDTH 709 0
DWIDTH 13 0
BBX 11 12 2 0
BITMAP
F20000000000
F20000000000
F20000000000
F20000000000
F20000000000
F20000BC0000
F20000BC0000
F20000000000
E30000000000
C50000000000
6E5200000000
05BEFFFFFF90
ENDCHAR
STARTCHAR Lslash
ENCODING 321
SWIDTH 701 0
DWIDTH 13 0
BBX 12 12 0 0
BITMAP
00F200000000
00F200000000
00F200000000
00F200000000
00F35A800000
15FE94000000
B9F200000000
00F200000000
00F200000000
00F200000000
00F200000000
00FFFFFFFFFE
ENDCHAR
STARTCHAR lslash
ENCODING 322
SWIDTH 709 0
DWIDTH 13 0
BBX 13 12 0 0
BITMAP
00F20000000000
00F20000000000
00F20000000000
00F20000000000
00F35A80000000
15FE9400000000
B9F20000000000
00F20000000000
00E30000000000
00C60000000000
005E6200000000
0005BEFFFFFF90
ENDCHAR
STARTCHAR Nacute
ENCODING 323
SWIDTH 936 0
DWIDTH 17 0
BBX 13 16 2 0
BITMAP
00000002A40000
0000007E920000
00000792000000
00000000000000
FB0000000004C0
FDB000000004C0
F3CA00000004C0
F21CA0000004C0
F201CA000004C0
F2001CA00004C0
F20001CA0004C0
F200001CA004C0
F2000001CA04C0
F20000001CA4C0
F200000001CCC0
F2000000001CC0
ENDCHAR
STARTCHAR nacute
ENCODING 324
SWIDTH 933 0
DWIDTH 17 0
BBX 13 16 2 0
BITMAP
00000003B20000
0000019E710000
00000A71000000
00000000000000
F2005ADEED8100
F27DA631139D10
FDA20000000A80
F50000000005B0
F20000000004C0
F20000000004C0
F20000000004C0
F20000000004C0
F20000000004C0
F20000000004C0
F20000000004C0
F20000000004C0
ENDCHAR
STARTCHAR Ncommaaccent
ENCODING 325
SWIDTH 936 0
DWIDTH 17 0
BBX 13 15 2 -3
BITMAP
FB0000000004C0
FDB000000004C0
F3CA00000004C0
F21CA0000004C0
F201CA000004C0
F2001CA00004C0
F20001CA0004C0
F200001CA004C0
F2000001CA04C0
F20000001CA4C0
F200000001CCC0
F2000000001CC0
00000000000000
000002F1000000
000005A0000000
ENDCHAR
STARTCHAR ncommaaccent
ENCODING 326
SWIDTH 933 0
DWIDTH 17 0
BBX 13 15 2 -3
BITMAP
F2005ADEED8100
F27DA631139D10
FDA20000000A80
F50000000005B0
F20000000004C0
F20000000004C0
F20000000004C0
F20000000004C0
F20000000004C0
F20000000004C0
F20000000004C0
F20000000004C0
00000000000000
000002E1000000
000005A0000000
ENDCHAR
STARTCHAR Ncaron
ENCODING 327
SWIDTH 936 0
DWIDTH 17 0
BBX 13 16 2 0
BITMAP
000A5000680000
0001AB5C800000
000006C4000000
00000000000000
FB0000000004C0
FDB000000004C0
F3CA00000004C0
F21CA0000004C0
F201CA000004C0
F2001CA00004C0
F20001CA0004C0
F200001CA004C0
F2000001CA04C0
F20000001CA4C0
F200000001CCC0
F2000000001CC0
ENDCHAR
STARTCHAR ncaron
ENCODING 328
SWIDTH 933 0
DWIDTH 17 0
BBX 13 16 2 0
BITMAP
001B3001860000
0002C95D600000
000008C2000000
00000000000000
F2005ADEED8100
F27DA631139D10
FDA20000000A80
F50000000005B0
F20000000004C0
F20000000004C0
F20000000004C0
F20000000004C0
F20000000004C0
F20000000004C0
F20000000004C0
F20000000004C0
ENDCHAR
STARTCHAR napostrophe
ENCODING 329
SWIDTH 1025 0
DWIDTH 18 0
BBX 17 12 0 0
BITMAP
8A04C0027BDFEB6000
B604C29D942015C900
D104EE710000001E30
0004D2000000000A70
0004C0000000000970
0004C0000000000970
0004C0000000000970
0004C0000000000970
0004C0000000000970
0004C0000000000970
0004C0000000000970
0004C0000000000970
ENDCHAR
STARTCHAR Eng
ENCODING 330
SWIDTH 936 0
DWIDTH 17 0
BBX 13 12 2 0
BITMAP
FC2000000004C0
F7D400000004C0
F22C80000004C0
F2009B100004C0
F20005C40004C0
F200002B7004C0
F20000008A14C0
F200000004C7C0
F2000000001BC0
F2000000000A90
F2002A41028E20
F20004AEFDA200
ENDCHAR
STARTCHAR eng
ENCODING 331
SWIDTH 933 0
DWIDTH 17 0
BBX 13 12 2 0
BITMAP
F2005ADEFD8100
F27DA631139D10
FDA20000000A80
F50000000005C0
F20000000004C0
F20000000004C0
F20000000004C0
F20000000004C0
F20000000005C0
F2000000000990
F2000B51027E20
F200039DFDA200
ENDCHAR
STARTCHAR Omacron
ENCODING 332
SWIDTH 983 0
DWIDTH 18 0
BBX 16 14 1 0
BITMAP
000008FFFF400000
0000000000000000
00027BDFEDB71000
008E84101249E600
09B1000000003D60
3E100000000004E1
98000000000000C5
C6000000000000A7
B6000000000000A7
98000000000000C5
4E100000000004E1
0AB1000000003D60
009E84100249E600
00038CEFFDB71000
ENDCHAR
STARTCHAR omacron
ENCODING 333
SWIDTH 983 0
DWIDTH 18 0
BBX 16 14 1 0
BITMAP
000008FFFF400000
0000000000000000
00027BDFEDB71000
008E84101249E600
09B1000000003D60
3E100000000004E1
98000000000000C5
C6000000000000A7
B6000000000000A7
98000000000000C5
4E100000000004E1
0AB1000000003D60
009E84100249E600
00038CEFFDB71000
ENDCHAR
STARTCHAR Obreve
ENCODING 334
SWIDTH 983 0
DWIDTH 18 0
BBX 16 15 1 0
BITMAP
00000D5118A00000
000003BEEA100000
0000000000000000
00027BDFEDB71000
008E84101249E600
09B1000000003D60
3E100000000004E1
98000000000000C5
C6000000000000A7
B6000000000000A7
98000000000000C5
4E100000000004E1
0AB1000000003D60
009E84100249E600
00038CEFFDB71000
ENDCHAR
STARTCHAR obreve
ENCODING 335
SWIDTH 983 0
DWIDTH 18 0
BBX 16 15 1 0
BITMAP
00000D5118A00000
000003BEEA100000
0000000000000000
00027BDFEDB71000
008E84101249E600
09B1000000003D60
3E100000000004E1
98000000000000C5
C6000000000000A7
B6000000000000A7
98000000000000C5
4E100000000004E1
0AB1000000003D60
009E84100249E600
00038CEFFDB71000
ENDCHAR
STARTCHAR Ohungarumlaut
ENCODING 336
SWIDTH 983 0
DWIDTH 18 0
BBX 16 16 1 0
BITMAP
0000000930840000
000001BB2AC20000
0000068049000000
0000000000000000
00027BDFEDB71000
008E84101249E600
09B1000000003D60
3E100000000004E1
98000000000000C5
C6000000000000A7
B6000000000000A7
98000000000000C5
4E100000000004E1
0AB1000000003D60
009E84100249E600
00038CEFFDB71000
ENDCHAR
STARTCHAR ohungarumlaut
ENCODING 337
SWIDTH 983 0
DWIDTH 18 0
BBX 16 16 1 0
BITMAP
0000000930840000
000001BB2AC20000
0000068049000000
0000000000000000
00027BDFEDB71000
008E84101249E600
09B1000000003D60
3E100000000004E1
98000000000000C5
C6000000000000A7
B6000000000000A7
98000000000000C5
4E100000000004E1
0AB1000000003D60
009E84100249E600
00038CEFFDB71000
ENDCHAR
STARTCHAR OE
ENCODING 338
SWIDTH 1338 0
DWIDTH 24 0
BBX 22 12 1 0
BITMAP
00027BEFFFFFFFFFFFFFF9
008E84100139B000000000
09C100000007B000000000
3E1000000007B000000000
980000000007B000000000
C60000000007FFFFFFFFF2
B60000000007B000000000
980000000007B000000000
4D1000000007B000000000
0AB100000007B000000000
009E83100139B000000000
00038CEFFFFFFFFFFFFFFB
ENDCHAR
STARTCHAR oe
ENCODING 339
SWIDTH 1688 0
DWIDTH 30 0
BBX 29 12 1 0
BITMAP
00027BDFEDB61000017CDFEC820000
008E84101249E5005D8310137E7000
09B1000000003E65C100000001C600
3E100000000004EE20000000002E00
98000000000000CA00000000000C40
C6000000000000AFFFFFFFFFFFFF50
B6000000000000A900000000000000
98000000000000CD00000000000000
4E100000000004EF50000000000000
0AB1000000003D66E5000000000000
009E84100249E5005EB6210136A600
00038CEFEDB61000016BDEFEC95000
ENDCHAR
STARTCHAR Racute
ENCODING 340
SWIDTH 833 0
DWIDTH 15 0
BBX 13 16 2 0
BITMAP
0000006A000000
00004CC4000000
0001C500000000
00000000000000
FFFFFFFEB60000
F20000125C9000
F200000002F100
F200000000E300
F200000001F100
F20000125C9000
FFFFFFFFC60000
F2000008B00000
F2000000B80000
F20000001D5000
F200000003E300
F2000000006D10
ENDCHAR
STARTCHAR racute
ENCODING 341
SWIDTH 609 0
DWIDTH 11 0
BBX 9 16 2 0
BITMAP
000005B000
0002BD6000
000C600000
0000000000
F2017CEFD0
F26D831020
FBA1000000
F800000000
F200000000
F200000000
F200000000
F200000000
F200000000
F200000000
F200000000
F200000000
ENDCHAR
STARTCHAR Rcommaaccent
ENCODING 342
SWIDTH 833 0
DWIDTH 15 0
BBX 13 15 2 -3
BITMAP
FFFFFFFEB60000
F20000125C9000
F200000002F100
F200000000E300
F200000001F100
F20000125C9000
FFFFFFFFC60000
F2000008B00000
F2000000B80000
F20000001D5000
F200000003E300
F2000000006D10
00000000000000
00001F20000000
00004B00000000
ENDCHAR
STARTCHAR rcommaaccent
ENCODING 343
SWIDTH 609 0
DWIDTH 11 0
BBX 10 15 1 -3
BITMAP
0F2017CEFD
0F26D83102
0FBA100000
0F80000000
0F20000000
0F20000000
0F20000000
0F20000000
0F20000000
0F20000000
0F20000000
0F20000000
0000000000
0E30000000
2D00000000
ENDCHAR
STARTCHAR Rcaron
ENCODING 344
SWIDTH 833 0
DWIDTH 15 0
BBX 13 16 2 0
BITMAP
0591003B100000
006D68C3000000
0002B800000000
00000000000000
FFFFFFFEB60000
F20000125C9000
F200000002F100
F200000000E300
F200000001F100
F20000125C9000
FFFFFFFFC60000
F2000008B00000
F2000000B80000
F20000001D5000
F200000003E300
F2000000006D10
ENDCHAR
STARTCHAR rcaron
ENCODING 345
SWIDTH 609 0
DWIDTH 11 0
BBX 9 16 2 0
BITMAP
3A2002A300
04D77D4000
001AA10000
0000000000
F2017CEFD0
F26D831020
FBA1000000
F800000000
F200000000
F200000000
F200000000
F200000000
F200000000
F200000000
F200000000
F200000000
ENDCHAR
STARTCHAR Sacute
ENCODING 346
SWIDTH 787 0
DWIDTH 14 0
BBX 12 16 1 0
BITMAP
00000005B000
000003BD6000
00000C500000
000000000000
017BEFEDA610
1DA4210148A0
7B0000000000
7C0000000000
1BC610000000
004AEC841000
0000037AEA20
0000000016E4
00000000007B
00000000008A
6953101149E2
049CEFFEB710
ENDCHAR
STARTCHAR sacute
ENCODING 347
SWIDTH 787 0
DWIDTH 14 0
BBX 12 16 1 0
BITMAP
00000005B000
000003BD6000
00000C500000
000000000000
017BEFEDA610
1DA4210148A0
7B0000000000
7C0000000000
1BC610000000
004AEC841000
0000037AEA20
0000000016E4
00000000007B
00000000008A
6953101149E2
049CEFFEB710
ENDCHAR
STARTCHAR Scircumflex
ENCODING 348
SWIDTH 787 0
DWIDTH 14 0
BBX 12 16 1 0
BITMAP
00001A910000
0004D77D4000
003A1002A300
000000000000
017BEFEDA610
1DA4210148A0
7B0000000000
7C0000000000
1BC610000000
004AEC841000
0000037AEA20
0000000016E4
00000000007B
00000000008A
6953101149E2
049CEFFEB710
ENDCHAR
STARTCHAR scircumflex
ENCODING 349
SWIDTH 787 0
DWIDTH 14 0
BBX 12 16 1 0
BITMAP
00001A910000
0004D77D4000
003A1002A300
000000000000
017BEFEDA610
1DA4210148A0
7B0000000000
7C0000000000
1BC610000000
004AEC841000
0000037AEA20
0000000016E4
00000000007B
00000000008A
6953101149E2
049CEFFEB710
ENDCHAR
STARTCHAR Scedilla
ENCODING 350
SWIDTH 787 0
DWIDTH 14 0
BBX 12 16 1 -4
BITMAP
017BEFEDA610
1DA4210148A0
7B0000000000
7C0000000000
1BC610000000
004AEC841000
0000037BEA20
0000000016E3
00000000007B
00000000008A
6953101149E2
049DEFFEC810
000007500000
00000AF90000
0000002E1000
0000EFE80000
ENDCHAR
STARTCHAR scedilla
ENCODING 351
SWIDTH 787 0
DWIDTH 14 0
BBX 12 16 1 -4
BITMAP
017BEFEDA610
1DA4210148A0
7B0000000000
7C0000000000
1BC610000000
004AEC841000
0000037BEA20
0000000016E3
00000000007B
00000000008A
6953101149E2
049DEFFEC810
000007500000
00000AF90000
0000002E1000
0000EFE80000
ENDCHAR
STARTCHAR Scaron
ENCODING 352
SWIDTH 787 0
DWIDTH 14 0
BBX 12 16 1 0
BITMAP
003A1002A300
0004D77D4000
00001AA10000
000000000000
017BEFEDA610
1DA4210148A0
7B0000000000
7C0000000000
1BC610000000
004AEC841000
0000037AEA20
0000000016E4
00000000007B
00000000008A
6953101149E2
049CEFFEB710
ENDCHAR
STARTCHAR scaron
ENCODING 353
SWIDTH 787 0
DWIDTH 14 0
BBX 12 16 1 0
BITMAP
003A1002A300
0004D77D4000
00001AA10000
000000000000
017BEFEDA610
1DA4210148A0
7B0000000000
7C0000000000
1BC610000000
004AEC841000
0000037AEA20
0000000016E4
00000000007B
00000000008A
6953101149E2
049CEFFEB710
ENDCHAR
STARTCHAR Tcommaaccent
ENCODING 354
SWIDTH 708 0
DWIDTH 13 0
BBX 13 15 0 -3
BITMAP
AFFFFFFFFFFF60
000002E0000000
000002E0000000
000002E0000000
000002E0000000
000002E0000000
000002E0000000
000002E0000000
000002E0000000
000002E0000000
000002E0000000
000002E0000000
00000000000000
000003E1000000
000005A0000000
ENDCHAR
STARTCHAR tcommaaccent
ENCODING 355
SWIDTH 708 0
DWIDTH 13 0
BBX 13 15 0 -3
BITMAP
AFFFFFFFFFFF60
000002E0000000
000002E0000000
000002E0000000
000002E0000000
000002E0000000
000002E0000000
000002E0000000
000002E0000000
000002E0000000
000002E0000000
000002E0000000
00000000000000
000003E1000000
000005A0000000
ENDCHAR
STARTCHAR Tcaron
ENCODING 356
SWIDTH 708 0
DWIDTH 13 0
BBX 13 16 0 0
BITMAP
000A4000780000
0001AA5C800000
000006C3000000
00000000000000
AFFFFFFFFFFF60
000002E0000000
000002E0000000
000002E0000000
000002E0000000
000002E0000000
000002E0000000
000002E0000000
000002E0000000
000002E0000000
000002E0000000
000002E0000000
ENDCHAR
STARTCHAR tcaron
ENCODING 357
SWIDTH 708 0
DWIDTH 13 0
BBX 13 16 0 0
BITMAP
000A4000680000
0001AA5C800000
000006C4000000
00000000000000
AFFFFFFFFFFF60
000002E0000000
000002E0000000
000002E0000000
000002E0000000
000002E0000000
000002E0000000
000002E0000000
000002E0000000
000002E0000000
000002E0000000
000002E0000000
ENDCHAR
STARTCHAR Tbar
ENCODING 358
SWIDTH 708 0
DWIDTH 13 0
BBX 13 12 0 0
BITMAP
AFFFFFFFFFFF60
000002E0000000
000002E0000000
000002E0000000
000002E0000000
06FFFFFFFFF200
000002E0000000
000002E0000000
000002E0000000
000002E0000000
000002E0000000
000002E0000000
ENDCHAR
STARTCHAR tbar
ENCODING 359
SWIDTH 708 0
DWIDTH 13 0
BBX 13 12 0 0
BITMAP
AFFFFFFFFFFF60
000002E0000000
000002E0000000
000002E0000000
000002E0000000
06FFFFFFFFF200
000002E0000000
000002E0000000
000002E0000000
000002E0000000
000002E0000000
000002E0000000
ENDCHAR
STARTCHAR Utilde
ENCODING 360
SWIDTH 891 0
DWIDTH 16 0
BBX 14 15 1 0
BITMAP
00006EB51C1000
0000D15BE80000
00000000000000
1F0000000000F2
1F0000000000F2
1F0000000000F2
1F0000000000F2
1F0000000000F2
1F0000000000F2
1F0000000000F2
1F0000000000F2
0F1000000001F1
0B9000000008C0
02DB520025BD20
0016BEFFEB7100
ENDCHAR
STARTCHAR utilde
ENCODING 361
SWIDTH 931 0
DWIDTH 17 0
BBX 13 15 2 0
BITMAP
0003DD71860000
000A439EC10000
00000000000000
F10000000006B0
F10000000006B0
F10000000006B0
F10000000006B0
F10000000006B0
F10000000006B0
F10000000006B0
F10000000006B0
F20000000009B0
B700000003BEB0
3E721136CC56B0
029DFEC94006B0
ENDCHAR
STARTCHAR Umacron
ENCODING 362
SWIDTH 891 0
DWIDTH 16 0
BBX 14 14 1 0
BITMAP
00006FFFF70000
00000000000000
1F0000000000F2
1F0000000000F2
1F0000000000F2
1F0000000000F2
1F0000000000F2
1F0000000000F2
1F0000000000F2
1F0000000000F2
0F1000000001F1
0B9000000008C0
02DB520025BD20
0016BEFFEB7100
ENDCHAR
STARTCHAR umacron
ENCODING 363
SWIDTH 931 0
DWIDTH 17 0
BBX 13 14 2 0
BITMAP
0001FFFFC00000
00000000000000
F10000000006B0
F10000000006B0
F10000000006B0
F10000000006B0
F10000000006B0
F10000000006B0
F10000000006B0
F10000000006B0
F20000000009B0
B700000003BEB0
3E721136CC56B0
029DFEC94006B0
ENDCHAR
STARTCHAR Ubreve
ENCODING 364
SWIDTH 891 0
DWIDTH 16 0
BBX 14 15 1 0
BITMAP
0000C7116D0000
00002AEFB20000
00000000000000
1F0000000000F2
1F0000000000F2
1F0000000000F2
1F0000000000F2
1F0000000000F2
1F0000000000F2
1F0000000000F2
1F0000000000F2
0F1000000001F1
0B9000000008C0
02DB520025BD20
0016BEFFEB7100
ENDCHAR
STARTCHAR ubreve
ENCODING 365
SWIDTH 931 0
DWIDTH 17 0
BBX 13 15 2 0
BITMAP
0007B204D30000
00008DFD500000
00000000000000
F10000000006B0
F10000000006B0
F10000000006B0
F10000000006B0
F10000000006B0
F10000000006B0
F10000000006B0
F10000000006B0
F20000000009B0
B700000003BEB0
3E721136CC56B0
029DFEC94006B0
ENDCHAR
STARTCHAR Uring
ENCODING 366
SWIDTH 891 0
DWIDTH 16 0
BBX 14 16 1 0
BITMAP
000009EEA10000
00003C11C40000
000009EEA10000
00000000000000
1F0000000000F2
1F0000000000F2
1F0000000000F2
1F0000000000F2
1F0000000000F2
1F0000000000F2
1F0000000000F2
1F0000000000F2
0F1000000001F1
0B9000000008C0
02DB520025BD20
0016BEFFEB7100
ENDCHAR
STARTCHAR uring
ENCODING 367
SWIDTH 931 0
DWIDTH 17 0
BBX 13 16 2 0
BITMAP
00006DFC300000
0000D408900000
00006DFC300000
00000000000000
F10000000006B0
F10000000006B0
F10000000006B0
F10000000006B0
F10000000006B0
F10000000006B0
F10000000006B0
F10000000006B0
F20000000009B0
B700000003BEB0
3E721136CC56B0
029DFEC94006B0
ENDCHAR
STARTCHAR Uhungarumlaut
ENCODING 368
SWIDTH 891 0
DWIDTH 16 0
BBX 14 16 1 0
BITMAP
00000085067000
000009D38D3000
00004A12B10000
00000000000000
1F0000000000F2
1F0000000000F2
1F0000000000F2
1F0000000000F2
1F0000000000F2
1F0000000000F2
1F0000000000F2
1F0000000000F2
0F1000000001F1
0B9000000008C0
02DB520025BD20
0016BEFFEB7100
ENDCHAR
STARTCHAR uhungarumlaut
ENCODING 369
SWIDTH 931 0
DWIDTH 17 0
BBX 13 16 2 0
BITMAP
000004903A0000
00005E64E70000
0000B30A300000
00000000000000
F10000000006B0
F10000000006B0
F10000000006B0
F10000000006B0
F10000000006B0
F10000000006B0
F10000000006B0
F10000000006B0
F20000000009B0
B700000003BEB0
3E721136CC56B0
029DFEC94006B0
ENDCHAR
STARTCHAR Uogonek
ENCODING 370
SWIDTH 891 0
DWIDTH 16 0
BBX 14 15 1 -3
BITMAP
1F0000000000F2
1F0000000000F2
1F0000000000F2
1F0000000000F2
1F0000000000F2
1F0000000000F2
1F0000000000F2
1F0000000000F2
0F1000000001F1
0B9000000008C0
02DB520025BD20
0017BEFFEB7100
000003B1000000
00000880000000
000004DFF30000
ENDCHAR
STARTCHAR uogonek
ENCODING 371
SWIDTH 931 0
DWIDTH 17 0
BBX 14 15 2 -3
BITMAP
F10000000006B0
F10000000006B0
F10000000006B0
F10000000006B0
F10000000006B0
F10000000006B0
F10000000006B0
F10000000006B0
F20000000009B0
B700000003BEB0
3E721136CC56B0
029DFEC94006B0
00000000004920
0000000000D300
00000000008EFE
ENDCHAR
STARTCHAR Wcircumflex
ENCODING 372
SWIDTH 1266 0
DWIDTH 23 0
BBX 22 16 0 0
BITMAP
00000000006C3000000000
000000001AA5C800000000
00000000A4000780000000
0000000000000000000000
2F200000008F500000004E
0B70000000EBB0000000A8
05D0000005D2F2000002F2
00D400000A70B7000008B0
008A00001F205D00000D50
002F20007A000E40005D00
000A7000D50008A000B700
0004D004E00002E102F200
0000D509800000B608A000
00007B1E2000005C0D4000
00001F8B0000000E8D0000
00000AF500000009F70000
ENDCHAR
STARTCHAR wcircumflex
ENCODING 373
SWIDTH 1266 0
DWIDTH 23 0
BBX 22 16 0 0
BITMAP
00000000006C3000000000
000000001AA5C800000000
00000000A4000780000000
0000000000000000000000
2F200000008F500000004E
0B70000000EBB0000000A8
05D0000005D2F2000002F2
00D400000A70B7000008B0
008A00001F205D00000D50
002F20007A000E40005D00
000A7000D50008A000B700
0004D004E00002E102F200
0000D509800000B608A000
00007B1E2000005C0D4000
00001F8B0000000E8D0000
00000AF500000009F70000
ENDCHAR
STARTCHAR Ycircumflex
ENCODING 374
SWIDTH 763 0
DWIDTH 14 0
BBX 13 16 0 0
BITMAP
000002B8000000
00005D68C30000
000491002B1000
00000000000000
1D500000000AA0
03E30000007C10
005D200004E200
0007C0002E4000
0000AA01D60000
00001C7B900000
000002EB000000
000000A6000000
000000A6000000
000000A6000000
000000A6000000
000000A6000000
ENDCHAR
STARTCHAR ycircumflex
ENCODING 375
SWIDTH 911 0
DWIDTH 16 0
BBX 14 16 1 0
BITMAP
000001A9100000
00004D77D40000
0003A1002A3000
00000000000000
6B0000000000B5
6B0000000000B5
6B0000000000B5
5D0000000000C5
2F1000000006F5
0C800000007DD5
02DA41015CB2B5
0017CEFDA400C5
000000000001E3
00000000001BB0
5A63100248EB10
059CEFFEC94000
ENDCHAR
STARTCHAR Ydieresis
ENCODING 376
SWIDTH 763 0
DWIDTH 14 0
BBX 13 14 0 0
BITMAP
00008C00F40000
00000000000000
1D500000000AA0
03E30000007C10
005D200004E200
0007C0002E4000
0000AA01D60000
00001C7B900000
000002EB000000
000000A6000000
000000A6000000
000000A6000000
000000A6000000
000000A6000000
ENDCHAR
STARTCHAR Zacute
ENCODING 377
SWIDTH 728 0
DWIDTH 13 0
BBX 11 16 1 0
BITMAP
000000188000
000005DB3000
00004B300000
000000000000
7FFFFFFFFFA0
000000006D10
00000004E200
0000003E4000
000001D50000
00001C700000
0000A9000000
0009B0000000
007D10000000
05D200000000
3E3000000000
AFFFFFFFFFE0
ENDCHAR
STARTCHAR zacute
ENCODING 378
SWIDTH 728 0
DWIDTH 13 0
BBX 11 16 1 0
BITMAP
000000188000
000005DB3000
00004B300000
000000000000
7FFFFFFFFFA0
000000006D10
00000004E200
0000003E4000
000001D50000
00001C700000
0000A9000000
0009B0000000
007D10000000
05D200000000
3E3000000000
AFFFFFFFFFE0
ENDCHAR
STARTCHAR Zdotaccent
ENCODING 379
SWIDTH 728 0
DWIDTH 13 0
BBX 11 14 1 0
BITMAP
00000F500000
000000000000
7FFFFFFFFFA0
000000006D10
00000004E200
0000003E4000
000001D50000
00001C700000
0000A9000000
0009B0000000
007D10000000
05D200000000
3E3000000000
AFFFFFFFFFE0
ENDCHAR
STARTCHAR zdotaccent
ENCODING 380
SWIDTH 728 0
DWIDTH 13 0
BBX 11 14 1 0
BITMAP
00000F500000
000000000000
7FFFFFFFFFA0
000000006D10
00000004E200
0000003E4000
000001D50000
00001C700000
0000A9000000
0009B0000000
007D10000000
05D200000000
3E3000000000
AFFFFFFFFFE0
ENDCHAR
STARTCHAR Zcaron
ENCODING 381
SWIDTH 728 0
DWIDTH 13 0
BBX 11 16 1 0
BITMAP
00770004B000
0007C5AB2000
00003C600000
000000000000
7FFFFFFFFFA0
000000006D10
00000004E200
0000003E4000
000001D50000
00001C700000
0000A9000000
0009B0000000
007D10000000
05D200000000
3E3000000000
AFFFFFFFFFE0
ENDCHAR
STARTCHAR zcaron
ENCODING 382
SWIDTH 728 0
DWIDTH 13 0
BBX 11 16 1 0
BITMAP
00770004B000
0007C5AB2000
00003C600000
000000000000
7FFFFFFFFFA0
000000006D10
00000004E200
0000003E4000
000001D50000
00001C700000
0000A9000000
0009B0000000
007D10000000
05D200000000
3E3000000000
AFFFFFFFFFE0
ENDCHAR
STARTCHAR florin
ENCODING 402
SWIDTH 835 0
DWIDTH 15 0
BBX 15 13 0 -1
BITMAP
0000000006CFE910
000000005E411560
00000000C6000000
00000002F1000000
00004FFFFFFB0000
0000000A70000000
0000000E30000000
0000004D00000000
0000008900000000
000000D500000000
000004E000000000
66104D6000000000
19EEC60000000000
ENDCHAR
STARTCHAR AEacute
ENCODING 508
SWIDTH 1172 0
DWIDTH 21 0
BBX 20 16 0 0
BITMAP
000000000000002B2000
00000000000018E81000
00000000000098100000
00000000000000000000
00000003FFFFFFFFFFF9
0000000C67B000000000
0000008B07B000000000
000003E207B000000000
00001D7007B000000000
00009C0007FFFFFFFFF3
0004F30007B000000000
001D800007B000000000
009FFFFFFFB000000000
04F3000007B000000000
1E70000007B000000000
AC00000007FFFFFFFFFB
ENDCHAR
STARTCHAR aeacute
ENCODING 509
SWIDTH 1551 0
DWIDTH 28 0
BBX 26 16 1 0
BITMAP
000000000000003B1000000000
00000000000019E71000000000
000000000000A7100000000000
00000000000000000000000000
0159CEFEDA6100049DEFDA6000
0A95210126CD21BC521025AD20
000000000009CC6000000005D1
000000000002F9000000000097
000000000000F300000000004C
0000268ABCEFFFFFFFFFFFFFFE
029ED9754211F2000000000000
4E7100000000E6000000000000
C600000000009D000000000000
D60000000004CEB10000000000
6F83101258DB41AE84100147B0
04ADEFEDA62000039CEFFDB720
ENDCHAR
STARTCHAR Oslashacute
ENCODING 510
SWIDTH 983 0
DWIDTH 18 0
BBX 16 17 1 -1
BITMAP
0000000006A00000
00000003CC500000
0000001C50000000
000000000000A700
00027BDFEDAA9000
008E8410128DE500
09B1000002D23E50
3E1000000C5004E1
98000000880000D5
C6000005C00000A7
B600002D200000A7
980000C4000000C5
4E100980000004E1
0AB15C0000003D60
009EE5100249E600
001C9BEFFDB71000
00B6000000000000
ENDCHAR
STARTCHAR oslashacute
ENCODING 511
SWIDTH 983 0
DWIDTH 18 0
BBX 16 17 1 -1
BITMAP
0000000006A00000
00000003CC500000
0000001C50000000
000000000000A700
00027BDFEDAA9000
008E8410128DE500
09B1000002D23E50
3E1000000C5004E1
98000000880000D5
C6000005C00000A7
B600002D200000A7
980000C4000000C5
4E100980000004E1
0AB15C0000003D60
009EE5100249E600
001C9BEFFDB71000
00B6000000000000
ENDCHAR
STARTCHAR dotlessj
ENCODING 567
SWIDTH 590 0
DWIDTH 11 0
BBX 9 12 0 0
BITMAP
00000007A0
00000007A0
00000007A0
00000007A0
00000007A0
00000007A0
00000007A0
00000007A0
0000000790
0000001C60
B62114BC00
39DFEC6000
ENDCHAR
STARTCHAR circumflex
ENCODING 710
SWIDTH 527 0
DWIDTH 10 0
BBX 7 3 1 10
BITMAP
002C7000
06D59B20
681003B0
ENDCHAR
STARTCHAR caron
ENCODING 711
SWIDTH 527 0
DWIDTH 10 0
BBX 7 3 1 10
BITMAP
681003B0
07D59C20
002C7000
ENDCHAR
STARTCHAR breve
ENCODING 728
SWIDTH 527 0
DWIDTH 10 0
BBX 7 2 1 10
BITMAP
1E412A80
04CEE900
ENDCHAR
STARTCHAR dotaccent
ENCODING 729
SWIDTH 527 0
DWIDTH 10 0
BBX 2 1 4 10
BITMAP
E7
ENDCHAR
STARTCHAR ring
ENCODING 730
SWIDTH 527 0
DWIDTH 10 0
BBX 5 3 2 10
BITMAP
2BED70
7913E0
2CFE70
ENDCHAR
STARTCHAR ogonek
ENCODING 731
SWIDTH 527 0
DWIDTH 10 0
BBX 5 3 2 -3
BITMAP
068100
2D1000
1BFF90
ENDCHAR
STARTCHAR tilde
ENCODING 732
SWIDTH 527 0
DWIDTH 10 0
BBX 7 2 1 10
BITMAP
0AEA33B0
4A17DE40
ENDCHAR
STARTCHAR hungarumlaut
ENCODING 733
SWIDTH 527 0
DWIDTH 10 0
BBX 7 3 2 10
BITMAP
01A10A30
1CA2BB10
76068000
ENDCHAR
STARTCHAR commaaccent
ENCODING 806
SWIDTH 527 0
DWIDTH 10 0
BBX 2 2 4 -3
BITMAP
C5
E1
ENDCHAR
STARTCHAR mu
ENCODING 956
SWIDTH 705 0
DWIDTH 13 0
BBX 11 12 0 -4
BITMAP
003E000003E0
006A000006B0
008700000980
00B400000C50
00E100001F20
02F20000BE00
05DB214B7E00
0876EEB30E20
0B5000000000
0E2000000000
2E0000000000
5C0000000000
ENDCHAR
STARTCHAR Wgrave
ENCODING 7808
SWIDTH 1266 0
DWIDTH 23 0
BBX 22 16 0 0
BITMAP
0000000078100000000000
000000003AE60000000000
00000000003A5000000000
0000000000000000000000
2F200000008F500000004E
0B70000000EBB0000000A8
05D0000005D2F2000002F2
00D400000A70B7000008B0
008A00001F205D00000D50
002F20007A000E40005D00
000A7000D50008A000B700
0004D004E00002E102F200
0000D509800000B608A000
00007B1E2000005C0D4000
00001F8B0000000E8D0000
00000AF500000009F70000
ENDCHAR
STARTCHAR wgrave
ENCODING 7809
SWIDTH 1266 0
DWIDTH 23 0
BBX 22 16 0 0
BITMAP
0000000078100000000000
000000003AE60000000000
00000000003A5000000000
0000000000000000000000
2F200000008F500000004E
0B70000000EBB0000000A8
05D0000005D2F2000002F2
00D400000A70B7000008B0
008A00001F205D00000D50
002F20007A000E40005D00
000A7000D50008A000B700
0004D004E00002E102F200
0000D509800000B608A000
00007B1E2000005C0D4000
00001F8B0000000E8D0000
00000AF500000009F70000
ENDCHAR
STARTCHAR Wacute
ENCODING 7810
SWIDTH 1266 0
DWIDTH 23 0
BBX 22 16 0 0
BITMAP
0000000000002A40000000
000000000018E910000000
0000000000891000000000
0000000000000000000000
2F200000008F500000004E
0B70000000EBB0000000A8
05D0000005D2F2000002F2
00D400000A70B7000008B0
008A00001F205D00000D50
002F20007A000E40005D00
000A7000D50008A000B700
0004D004E00002E102F200
0000D509800000B608A000
00007B1E2000005C0D4000
00001F8B0000000E8D0000
00000AF500000009F70000
ENDCHAR
STARTCHAR wacute
ENCODING 7811
SWIDTH 1266 0
DWIDTH 23 0
BBX 22 16 0 0
BITMAP
0000000000002A40000000
000000000018E910000000
0000000000891000000000
0000000000000000000000
2F200000008F500000004E
0B70000000EBB0000000A8
05D0000005D2F2000002F2
00D400000A70B7000008B0
008A00001F205D00000D50
002F20007A000E40005D00
000A7000D50008A000B700
0004D004E00002E102F200
0000D509800000B608A000
00007B1E2000005C0D4000
00001F8B0000000E8D0000
00000AF500000009F70000
ENDCHAR
STARTCHAR Wdieresis
ENCODING 7812
SWIDTH 1266 0
DWIDTH 23 0
BBX 22 14 0 0
BITMAP
000000000F408C00000000
0000000000000000000000
2F200000008F500000004E
0B70000000EBB0000000A8
05D0000005D2F2000002F2
00D400000A70B7000008B0
008A00001F205D00000D50
002F20007A000E40005D00
000A7000D50008A000B700
0004D004E00002E102F200
0000D509800000B608A000
00007B1E2000005C0D4000
00001F8B0000000E8D0000
00000AF500000009F70000
ENDCHAR
STARTCHAR wdieresis
ENCODING 7813
SWIDTH 1266 0
DWIDTH 23 0
BBX 22 14 0 0
BITMAP
000000000F408C00000000
0000000000000000000000
2F200000008F500000004E
0B70000000EBB0000000A8
05D0000005D2F2000002F2
00D400000A70B7000008B0
008A00001F205D00000D50
002F20007A000E40005D00
000A7000D50008A000B700
0004D004E00002E102F200
0000D509800000B608A000
00007B1E2000005C0D4000
00001F8B0000000E8D0000
00000AF500000009F70000
ENDCHAR
STARTCHAR Ygrave
ENCODING 7922
SWIDTH 763 0
DWIDTH 14 0
BBX 13 16 0 0
BITMAP
0001B400000000
00007EA2000000
0000017B000000
00000000000000
1D500000000AA0
03E30000007C10
005D200004E200
0007C0002E4000
0000AA01D60000
00001C7B900000
000002EB000000
000000A6000000
000000A6000000
000000A6000000
000000A6000000
000000A6000000
ENDCHAR
STARTCHAR ygrave
ENCODING 7923
SWIDTH 911 0
DWIDTH 16 0
BBX 14 16 1 0
BITMAP
0000B500000000
00006DB2000000
0000006C000000
00000000000000
6B0000000000B5
6B0000000000B5
6B0000000000B5
5D0000000000C5
2F1000000006F5
0C800000007DD5
02DA41015CB2B5
0017CEFDA400C5
000000000001E3
00000000001BB0
5A63100248EB10
059CEFFEC94000
ENDCHAR
STARTCHAR endash
ENCODING 8211
SWIDTH 419 0
DWIDTH 8 0
BBX 8 1 0 6
BITMAP
AFFFFFF3
ENDCHAR
STARTCHAR emdash
ENCODING 8212
SWIDTH 1000 0
DWIDTH 18 0
BBX 18 1 0 6
BITMAP
FFFFFFFFFFFFFFFFFF
ENDCHAR
STARTCHAR quoteleft
ENCODING 8216
SWIDTH 163 0
DWIDTH 3 0
BBX 3 3 0 9
BITMAP
0A40
0E10
5D00
ENDCHAR
STARTCHAR quoteright
ENCODING 8217
SWIDTH 163 0
DWIDTH 3 0
BBX 3 3 0 9
BITMAP
0E30
3D00
6900
ENDCHAR
STARTCHAR quotesinglbase
ENCODING 8218
SWIDTH 163 0
DWIDTH 3 0
BBX 3 3 0 -1
BITMAP
0E30
3D00
6900
ENDCHAR
STARTCHAR quotedblleft
ENCODING 8220
SWIDTH 303 0
DWIDTH 5 0
BBX 5 3 0 9
BITMAP
0A42C0
0E1790
5D0C60
ENDCHAR
STARTCHAR quotedblright
ENCODING 8221
SWIDTH 303 0
DWIDTH 5 0
BBX 5 3 0 9
BITMAP
0E37B0
3D0A60
690D20
ENDCHAR
STARTCHAR quotedblbase
ENCODING 8222
SWIDTH 303 0
DWIDTH 5 0
BBX 5 3 0 -1
BITMAP
0E37B0
3D0A60
690D20
ENDCHAR
STARTCHAR dagger
ENCODING 8224
SWIDTH 500 0
DWIDTH 9 0
BBX 7 12 1 0
BITMAP
000F0000
000F0000
000F0000
6FFFFF60
000F0000
000F0000
000F0000
000F0000
000F0000
000F0000
000F0000
000F0000
ENDCHAR
STARTCHAR daggerdbl
ENCODING 8225
SWIDTH 500 0
DWIDTH 9 0
BBX 7 12 1 0
BITMAP
000F0000
000F0000
000F0000
6FFFFF60
000F0000
000F0000
000F0000
6FFFFF60
000F0000
000F0000
000F0000
000F0000
ENDCHAR
STARTCHAR bullet
ENCODING 8226
SWIDTH 352 0
DWIDTH 6 0
BBX 4 3 1 5
BITMAP
2CE6
8FFC
2DE6
ENDCHAR
STARTCHAR ellipsis
ENCODING 8230
SWIDTH 555 0
DWIDTH 10 0
BBX 10 2 0 0
BITMAP
2F60CB07F1
2F60CB07F1
ENDCHAR
STARTCHAR perthousand
ENCODING 8240
SWIDTH 1401 0
DWIDTH 25 0
BBX 25 12 0 0
BITMAP
008DEC50000099000000000000
09A214D40006B0000000000000
1F10006A004D10000000000000
1F10006A02D300000000000000
09A214D40C5000000000000000
008DEC50980000000000000000
00000007B04BED91003BEEA200
0000004D13E5129B02E6118C00
000002D30880000E2790000C40
00001C500880000E2790000C40
0000A80003E5129B02E6118C00
0007B000003BED91003BEE9100
ENDCHAR
STARTCHAR guilsinglleft
ENCODING 8249
SWIDTH 257 0
DWIDTH 5 0
BBX 4 7 0 3
BITMAP
003A
01D5
0C80
4E00
0C80
01D5
003A
ENDCHAR
STARTCHAR guilsinglright
ENCODING 8250
SWIDTH 257 0
DWIDTH 5 0
BBX 4 7 0 3
BITMAP
1B10
0AA0
00C7
003F
00C7
09A0
1B10
ENDCHAR
STARTCHAR fraction
ENCODING 8260
SWIDTH 200 0
DWIDTH 4 0
BBX 11 12 -4 0
BITMAP
0000000006C0
000000003D10
00000001D300
0000000B6000
000000990000
000006C00000
00003D100000
0001D3000000
000C60000000
009900000000
06C000000000
3D1000000000
ENDCHAR
STARTCHAR Euro
ENCODING 8364
SWIDTH 833 0
DWIDTH 15 0
BBX 14 12 0 0
BITMAP
000004ADFEC600
0001BC621138B2
000B9000000027
005D0000000000
5FFFFFFFFF9000
00B60000000000
00B60000000000
5FFFFFFFFB0000
005D0000000000
000C9000000027
0001BC621138B2
000004ADFEB500
ENDCHAR
STARTCHAR trademark
ENCODING 8482
SWIDTH 773 0
DWIDTH 14 0
BBX 13 5 0 7
BITMAP
7FFFC5D0003F20
00B105B700AB20
00B1056A138A20
00B105638A1A20
00B10560A60A20
ENDCHAR
STARTCHAR partialdiff
ENCODING 8706
SWIDTH 790 0
DWIDTH 14 0
BBX 13 12 1 0
BITMAP
00029DFEB60000
000A62014BC100
0000000000A900
00000000003E00
004ADFEC820F10
09D621138E7F10
6C10000002CF00
C5000000007B00
D300000001D600
A90000001BB000
2EA41026DB1000
018DFFDA400000
ENDCHAR
STARTCHAR minus
ENCODING 8722
SWIDTH 634 0
DWIDTH 11 0
BBX 9 1 1 6
BITMAP
7FFFFFFFE0
ENDCHAR
STARTCHAR uni2215
ENCODING 8725
SWIDTH 200 0
DWIDTH 4 0
BBX 11 12 -4 0
BITMAP
0000000006C0
000000003D10
00000001D300
0000000B6000
000000990000
000006C00000
00003D100000
0001D3000000
000C60000000
009900000000
06C000000000
3D1000000000
ENDCHAR
STARTCHAR approxequal
ENCODING 8776
SWIDTH 634 0
DWIDTH 11 0
BBX 10 5 1 4
BITMAP
2BED941191
74137BEE60
0000000000
2BED941191
74137BEE60
ENDCHAR
STARTCHAR notequal
ENCODING 8800
SWIDTH 634 0
DWIDTH 11 0
BBX 9 10 1 1
BITMAP
000006A000
00000B5000
00001E1000
7FFFFFFFE0
0000A60000
0001E10000
7FFFFFFFE0
000B500000
001E100000
005B000000
ENDCHAR
STARTCHAR lessequal
ENCODING 8804
SWIDTH 634 0
DWIDTH 11 0
BBX 9 10 1 1
BITMAP
00000005B0
000006DA30
0017DA3000
18E9200000
9E50000000
16BD830000
00027CC720
00000027C0
0000000000
7FFFFFFFE0
ENDCHAR
STARTCHAR greaterequal
ENCODING 8805
SWIDTH 634 0
DWIDTH 11 0
BBX 10 10 1 1
BITMAP
7810000000
17D9200000
0017DA3000
000006DB40
0000001BF1
00016BD830
15AD940000
7A50000000
0000000000
7FFFFFFFE0
ENDCHAR
STARTCHAR fi
ENCODING 64257
SWIDTH 1104 0
DWIDTH 20 0
BBX 16 12 2 0
BITMAP
017CEFFFFFF9004D
2E9420000000004D
B70000000000004D
E20000000000004D
F20000000000004D
FFFFFFFFFFF7004D
F20000000000004D
F20000000000004D
F20000000000004D
F20000000000004D
F20000000000004D
F20000000000004D
ENDCHAR
STARTCHAR fl
ENCODING 64258
SWIDTH 1527 0
DWIDTH 28 0
BBX 26 12 2 0
BITMAP
017CEFFFFFF9004D0000000000
2E9420000000004D0000000000
B70000000000004D0000000000
E20000000000004D0000000000
F20000000000004D0000000000
FFFFFFFFFFF7004D0000000000
F20000000000004D0000000000
F20000000000004D0000000000
F20000000000003D0000000000
F20000000000001F1000000000
F20000000000000AC410000000
F2000000000000007CEFFFFFF5
ENDCHAR
STARTCHAR .notdef
ENCODING -1
SWIDTH 1000 0
DWIDTH 18 0
BBX 1 1 0 0
BITMAP
00
ENDCHAR
ENDFONT
